<svg width="126" height="141" viewBox="0 0 126 141" fill="none" xmlns="http://www.w3.org/2000/svg">
<rect x="15" y="0.5" width="96" height="96" rx="8" fill="#FFCC00"/>
<path fill-rule="evenodd" clip-rule="evenodd" d="M68.8096 16.6759C67.6887 16.8339 65.7388 17.0993 63.3322 17.4211C62.6423 17.5134 60.7983 17.7616 59.2346 17.9725C57.6708 18.1835 55.9962 18.4072 55.5133 18.4697C51.7142 18.961 50.5247 19.1218 46.5717 19.6791C46.2762 19.7207 45.99 19.8033 45.9358 19.8626C44.5559 21.3713 43.117 22.9624 42.5943 23.5579C42.2268 23.9764 41.6596 24.6011 41.3337 24.9461C41.0077 25.291 40.352 26.006 39.8765 26.5349C39.0535 27.4505 37.4444 29.1962 36.9068 29.7569C36.7688 29.9008 36.2608 30.4468 35.7779 30.9702C35.295 31.4937 34.6335 32.2057 34.3079 32.5525C33.9824 32.8993 33.4765 33.4465 33.1838 33.7685C32.891 34.0904 32.4024 34.6172 32.0978 34.9392C31.4064 35.6702 30.4858 36.6587 29.297 37.9465C28.7911 38.4945 28.0679 39.2651 27.6899 39.6589C27.3118 40.0526 27.0014 40.4406 27 40.521C26.9985 40.6014 27.4395 41.1105 27.9799 41.6524C28.8965 42.5714 31.1881 44.968 32.4329 46.3095C32.7319 46.6317 33.2433 47.178 33.5694 47.5236C33.8955 47.8691 34.4014 48.4153 34.6937 48.7372C34.986 49.0592 35.3024 49.3998 35.397 49.4941C35.4915 49.5884 35.8102 49.9271 36.1052 50.2467C36.4002 50.5663 37.0083 51.223 37.4565 51.7059C37.9047 52.1888 38.828 53.1861 39.5082 53.9219C40.1884 54.6578 40.768 55.2788 40.7961 55.3018C40.8242 55.3247 41.6321 56.1903 42.5915 57.2251C43.5509 58.26 44.6399 59.4281 45.0116 59.821C46.7517 61.6604 52.6582 68.0232 55.2116 70.8087C55.6304 71.2657 56.0673 71.7379 56.1823 71.8579C56.2973 71.978 56.9182 72.6564 57.5621 73.3657C58.8521 74.7865 59.6672 75.6755 60.3218 76.3751C60.5584 76.6281 61.3473 77.4936 62.075 78.2985C63.581 79.9643 64.373 80.8072 64.432 80.8072C64.4544 80.8072 64.6805 80.365 64.9345 79.8246C65.1885 79.2842 65.5383 78.541 65.7119 78.173C65.8855 77.8051 66.2805 76.9396 66.5897 76.2497C66.8988 75.5598 67.3331 74.6002 67.5547 74.1173C67.7763 73.6343 68.062 72.9946 68.1897 72.6956C68.4844 72.0052 68.5386 71.9367 68.7564 71.9806C69.1296 72.0557 70.719 72.3907 73.9107 73.0673C77.1719 73.7585 78.0466 73.9422 79.9316 74.3316C80.4605 74.4408 81.326 74.6221 81.855 74.7345C87.6782 75.9718 90.242 76.5321 91.2076 76.7782C91.6277 76.8853 91.8306 76.9058 91.8506 76.8431C91.8666 76.7927 91.9536 76.488 92.0439 76.1661C92.3035 75.2409 93.0561 72.742 93.4795 71.3995C93.9113 70.0304 94.2311 69.0057 94.3928 68.4726C94.7994 67.1321 95.7813 63.9434 96.028 63.1625C96.1805 62.6795 96.4259 61.8434 96.5734 61.3042L96.8415 60.3241L97.8988 60.3007L98.9562 60.2774L98.9781 57.2182L99 54.1589L98.7473 53.8314C98.4952 53.5045 98.0629 53.0007 95.6948 50.2731C95.0049 49.4784 94.3464 48.709 94.2314 48.5631C93.9814 48.2461 92.8333 46.8813 92.6235 46.6517C92.4279 46.4378 92.4331 46.4078 92.7232 46.0774C92.9517 45.8171 93.1443 45.4455 93.1443 45.2647C93.1443 45.1235 92.6814 44.753 91.1373 43.6583C90.2864 43.055 89.038 42.1635 88.363 41.6772C87.6879 41.1908 86.6595 40.4542 86.0775 40.0403C85.4956 39.6263 84.7496 39.0891 84.4197 38.8463C84.09 38.6035 83.7262 38.3401 83.6113 38.2609C82.5837 37.5525 80.5185 35.9602 80.5177 35.8755C80.5149 35.5953 82.0506 33.9701 83.0969 33.146L83.7604 32.6233L84.1968 30.8126C84.4368 29.8167 84.6893 28.7761 84.7577 28.5001C84.8262 28.2242 84.9554 27.6973 85.0445 27.3294C85.1337 26.9614 85.2284 26.5757 85.2549 26.4722C85.291 26.3311 85.2669 26.2841 85.1584 26.2841C85.0788 26.2841 84.6134 26.1876 84.1242 26.0696C83.635 25.9517 82.7079 25.7281 82.064 25.5728C79.0117 24.8364 77.9992 24.5927 77.3811 24.4455C75.9356 24.1015 74.944 23.8706 74.6905 23.8189C74.4108 23.7619 74.2714 23.5131 71.2567 17.6916L70.6396 16.5L70.289 16.5084C70.0962 16.513 69.4305 16.5883 68.8096 16.6759ZM74.5081 25.0243C74.8004 25.1133 76.2814 25.4895 77.7992 25.8603C79.317 26.231 80.841 26.6084 81.186 26.6989C81.5309 26.7895 82.1829 26.9495 82.6349 27.0546L83.4566 27.2457L83.4033 27.6221C83.3263 28.166 83.0774 29.2322 82.6771 30.7335L82.3268 32.047L81.9863 32.1286C81.7991 32.1735 81.4846 32.2553 81.2875 32.3104C81.0904 32.3655 80.9136 32.3951 80.8947 32.3762C80.8758 32.3573 80.8302 32.0042 80.7932 31.5917L80.726 30.8416L78.5936 30.873C77.4208 30.8902 74.893 30.9278 72.9763 30.9566L69.4914 31.0088L69.4641 34.5186L69.4367 38.0284L71.151 38.4646C72.0939 38.7046 73.8061 39.1377 74.956 39.4272L77.0466 39.9537L80.8047 43.6958C84.5266 47.4018 84.5658 47.4375 84.8605 47.3987C85.0243 47.3771 86.1554 47.2999 87.3742 47.2271C88.593 47.1542 89.8913 47.0655 90.2592 47.0298C90.6272 46.9941 90.9659 46.9799 91.0119 46.9983C91.0578 47.0166 91.246 47.2246 91.43 47.4605C91.614 47.6965 91.915 48.0643 92.099 48.2778C92.2829 48.4914 92.6969 48.9792 93.0188 49.3621C93.3408 49.7448 94.1254 50.6639 94.7624 51.4046C95.3995 52.1453 96.1756 53.0523 96.4873 53.4202C96.7989 53.7882 97.1526 54.1804 97.2733 54.2919L97.4928 54.4947V56.8634V59.2321L95.883 59.2322C94.9977 59.2323 89.5386 59.2574 83.7517 59.2879L73.2302 59.3434L73.2798 58.8487C73.3071 58.5767 73.4037 57.3192 73.4945 56.0544C73.7812 52.0614 74.0344 48.7524 74.2921 45.6299C74.3361 45.0982 74.3245 45.0261 74.1889 44.9848C74.1048 44.9591 72.5308 44.5402 70.6911 44.0539C68.8514 43.5676 66.8757 43.0442 66.3008 42.8907C65.7259 42.7373 64.7851 42.4887 64.2102 42.3384C63.6353 42.188 63.1177 42.028 63.06 41.9828C62.9768 41.9177 62.9594 40.3335 62.9763 34.3753L62.9977 26.8499L66.05 26.2405C67.7287 25.9052 69.7232 25.5154 70.482 25.3741C71.2409 25.233 72.1441 25.0636 72.489 24.9979C73.369 24.8303 73.8934 24.8371 74.5081 25.0243ZM48.9069 34.5848C51.6644 35.7635 52.3901 36.0681 52.4406 36.0681C52.4683 36.0681 52.7289 36.1746 53.0196 36.3048C53.3103 36.4349 53.7081 36.61 53.9035 36.6938L54.2589 36.8462V37.837V38.8277H51.4564H48.6539L48.6759 41.7755L48.6979 44.7233L49.5968 44.747L50.4958 44.7708V43.5554V42.34H52.8373H55.1788V45.6733V49.0068L50.0568 48.9728C47.2397 48.9541 44.8925 48.9246 44.8407 48.9074C44.789 48.8901 44.7202 48.6942 44.6878 48.4721C44.6555 48.25 44.4979 47.3909 44.3377 46.563C44.1776 45.7351 43.9777 44.7003 43.8937 44.2633C43.5504 42.4794 43.0284 39.9603 42.7067 38.5353L42.5368 37.7829L43.0988 37.2809C43.4079 37.0048 44.4366 36.116 45.3849 35.3059C46.7907 34.1049 47.1399 33.8446 47.2763 33.8961C47.3682 33.9309 48.1021 34.2408 48.9069 34.5848Z" fill="black"/>
<path d="M9.9375 117.125H17.9062V129.438C16.7292 129.906 15.526 130.255 14.2969 130.484C13.0781 130.703 11.8281 130.812 10.5469 130.812C8.67188 130.812 7.07812 130.354 5.76562 129.438C4.46354 128.521 3.46875 127.182 2.78125 125.422C2.09375 123.661 1.75 121.526 1.75 119.016C1.75 116.568 2.14062 114.474 2.92188 112.734C3.70312 110.995 4.82812 109.661 6.29688 108.734C7.76562 107.797 9.53646 107.328 11.6094 107.328C12.7865 107.328 13.8802 107.464 14.8906 107.734C15.9115 108.005 16.8021 108.349 17.5625 108.766L16.0469 113.219C15.4219 112.823 14.75 112.521 14.0312 112.312C13.3229 112.104 12.5781 112 11.7969 112C10.8281 112 10.0156 112.281 9.35938 112.844C8.71354 113.396 8.22396 114.203 7.89062 115.266C7.56771 116.328 7.40625 117.63 7.40625 119.172C7.40625 120.672 7.53646 121.938 7.79688 122.969C8.05729 124 8.44271 124.781 8.95312 125.312C9.47396 125.844 10.1146 126.109 10.875 126.109C11.1562 126.109 11.4375 126.089 11.7188 126.047C12.0104 125.995 12.2917 125.932 12.5625 125.859V121.672H9.9375V117.125ZM29.7656 112.484C29.974 112.484 30.1875 112.495 30.4062 112.516C30.625 112.536 30.8958 112.589 31.2188 112.672L30.7969 118.25C30.5885 118.177 30.3542 118.125 30.0938 118.094C29.8333 118.062 29.5365 118.047 29.2031 118.047C28.6927 118.047 28.25 118.125 27.875 118.281C27.5104 118.438 27.2083 118.667 26.9688 118.969C26.7396 119.26 26.5677 119.63 26.4531 120.078C26.3385 120.516 26.2812 121.026 26.2812 121.609V130.5H21.0938V112.797H25.0625L25.8125 115.625H26.0625C26.2708 115.146 26.5521 114.667 26.9062 114.188C27.2604 113.698 27.6771 113.292 28.1562 112.969C28.6458 112.646 29.1823 112.484 29.7656 112.484ZM39.3438 112.516C40.75 112.516 41.9531 112.828 42.9531 113.453C43.9531 114.078 44.7135 114.99 45.2344 116.188C45.7656 117.385 46.0312 118.849 46.0312 120.578V123.297H37.5781C37.5781 124.484 37.8229 125.349 38.3125 125.891C38.8125 126.422 39.5729 126.688 40.5938 126.688C41.4062 126.688 42.1615 126.583 42.8594 126.375C43.5573 126.167 44.3125 125.812 45.125 125.312V129.547C44.3646 129.995 43.5469 130.318 42.6719 130.516C41.7969 130.714 40.849 130.812 39.8281 130.812C38.1198 130.812 36.724 130.469 35.6406 129.781C34.5677 129.083 33.776 128.057 33.2656 126.703C32.7552 125.349 32.5 123.693 32.5 121.734C32.5 119.755 32.7552 118.083 33.2656 116.719C33.7865 115.344 34.5521 114.302 35.5625 113.594C36.5833 112.875 37.8438 112.516 39.3438 112.516ZM39.4688 116.516C38.9271 116.516 38.474 116.75 38.1094 117.219C37.7552 117.688 37.5781 118.5 37.5781 119.656H41.2344C41.2344 118.906 41.1615 118.302 41.0156 117.844C40.8698 117.375 40.6615 117.036 40.3906 116.828C40.1302 116.62 39.8229 116.516 39.4688 116.516ZM55.4219 112.484C57.1823 112.484 58.5729 113.01 59.5938 114.062C60.625 115.115 61.1406 116.724 61.1406 118.891V130.5H57.4062L56.5312 128.156H56.4375C56.0625 128.75 55.6615 129.245 55.2344 129.641C54.8177 130.036 54.3385 130.328 53.7969 130.516C53.2656 130.714 52.6302 130.812 51.8906 130.812C50.8802 130.812 50.0677 130.536 49.4531 129.984C48.8385 129.432 48.3906 128.719 48.1094 127.844C47.8385 126.969 47.7031 126.052 47.7031 125.094C47.7031 123.198 48.2083 121.781 49.2188 120.844C50.2396 119.906 51.7188 119.401 53.6562 119.328L55.9688 119.234V118.781C55.9688 118.062 55.8281 117.521 55.5469 117.156C55.276 116.792 54.849 116.609 54.2656 116.609C53.7552 116.609 53.1875 116.719 52.5625 116.938C51.9479 117.146 51.2448 117.474 50.4531 117.922L49.1094 114.078C49.974 113.568 50.9375 113.177 52 112.906C53.0625 112.625 54.2031 112.484 55.4219 112.484ZM55.9688 122.594L55 122.656C54.3021 122.688 53.776 122.891 53.4219 123.266C53.0677 123.63 52.8906 124.167 52.8906 124.875C52.8906 125.479 52.9948 125.932 53.2031 126.234C53.4115 126.536 53.724 126.688 54.1406 126.688C54.651 126.688 55.0833 126.458 55.4375 126C55.7917 125.531 55.9688 124.917 55.9688 124.156V122.594ZM71.2031 126.344C71.526 126.344 71.875 126.292 72.25 126.188C72.6354 126.073 73.0417 125.922 73.4688 125.734V129.828C72.8958 130.151 72.2917 130.396 71.6562 130.562C71.0312 130.729 70.3542 130.812 69.625 130.812C68.4688 130.812 67.5312 130.594 66.8125 130.156C66.0938 129.708 65.5677 129.031 65.2344 128.125C64.901 127.208 64.7344 126.057 64.7344 124.672V117.062H62.9375V114.312L65.1875 112.969L66.4062 109.25H69.9219V112.797H73.25V117.062H69.9219V124.609C69.9219 125.182 70.026 125.615 70.2344 125.906C70.4427 126.198 70.7656 126.344 71.2031 126.344ZM86.6094 130.5L85.75 126.047H80.8125L79.9531 130.5H74.0625L79.625 107.656H86.7969L92.4375 130.5H86.6094ZM84.9062 121.375L83.9844 116.266C83.8802 115.693 83.7812 115.135 83.6875 114.594C83.6042 114.052 83.526 113.536 83.4531 113.047C83.3906 112.547 83.3333 112.083 83.2812 111.656C83.2396 112.062 83.1823 112.51 83.1094 113C83.0469 113.49 82.9688 114.005 82.875 114.547C82.7812 115.078 82.6823 115.63 82.5781 116.203L81.6094 121.375H84.9062ZM102.938 112.484C104.583 112.484 105.87 113.307 106.797 114.953C107.724 116.589 108.188 118.839 108.188 121.703C108.188 123.589 107.979 125.214 107.562 126.578C107.146 127.932 106.552 128.979 105.781 129.719C105.021 130.448 104.115 130.812 103.062 130.812C102.531 130.812 102.031 130.724 101.562 130.547C101.104 130.37 100.677 130.094 100.281 129.719C99.8958 129.333 99.5417 128.839 99.2188 128.234H99.0625C99.1146 129.026 99.151 129.708 99.1719 130.281C99.2031 130.844 99.2188 131.292 99.2188 131.625V138.188H94.0312V112.797H98.2031L98.9688 115.078H99.2188C99.6146 114.349 99.9948 113.802 100.359 113.438C100.734 113.062 101.125 112.812 101.531 112.688C101.948 112.552 102.417 112.484 102.938 112.484ZM101.203 116.797C100.734 116.797 100.354 116.948 100.062 117.25C99.7708 117.552 99.5573 118.031 99.4219 118.688C99.2865 119.344 99.2188 120.208 99.2188 121.281V122.312C99.2188 123.25 99.2865 124.021 99.4219 124.625C99.5573 125.219 99.7656 125.661 100.047 125.953C100.339 126.234 100.714 126.375 101.172 126.375C101.568 126.375 101.896 126.208 102.156 125.875C102.417 125.531 102.609 125.016 102.734 124.328C102.87 123.641 102.938 122.786 102.938 121.766C102.938 120.089 102.786 118.844 102.484 118.031C102.193 117.208 101.766 116.797 101.203 116.797ZM117.094 112.516C118.5 112.516 119.703 112.828 120.703 113.453C121.703 114.078 122.464 114.99 122.984 116.188C123.516 117.385 123.781 118.849 123.781 120.578V123.297H115.328C115.328 124.484 115.573 125.349 116.062 125.891C116.562 126.422 117.323 126.688 118.344 126.688C119.156 126.688 119.911 126.583 120.609 126.375C121.307 126.167 122.062 125.812 122.875 125.312V129.547C122.115 129.995 121.297 130.318 120.422 130.516C119.547 130.714 118.599 130.812 117.578 130.812C115.87 130.812 114.474 130.469 113.391 129.781C112.318 129.083 111.526 128.057 111.016 126.703C110.505 125.349 110.25 123.693 110.25 121.734C110.25 119.755 110.505 118.083 111.016 116.719C111.536 115.344 112.302 114.302 113.312 113.594C114.333 112.875 115.594 112.516 117.094 112.516ZM117.219 116.516C116.677 116.516 116.224 116.75 115.859 117.219C115.505 117.688 115.328 118.5 115.328 119.656H118.984C118.984 118.906 118.911 118.302 118.766 117.844C118.62 117.375 118.411 117.036 118.141 116.828C117.88 116.62 117.573 116.516 117.219 116.516Z" fill="#1A1A1A"/>
</svg>
