<svg width="92" height="26" viewBox="0 0 92 26" fill="none" xmlns="http://www.w3.org/2000/svg">
<rect x="0.5" y="1" width="24" height="24" rx="2" fill="#FFCC00"/>
<path fill-rule="evenodd" clip-rule="evenodd" d="M13.9524 5.04397C13.6722 5.08348 13.1847 5.14981 12.583 5.23028C12.4106 5.25334 11.9496 5.31539 11.5586 5.36814C11.1677 5.42088 10.7491 5.47681 10.6283 5.49242C9.67855 5.61525 9.38118 5.65545 8.39293 5.79477C8.31905 5.80518 8.24751 5.82583 8.23394 5.84066C7.88897 6.21782 7.52926 6.6156 7.39857 6.76448C7.30671 6.86911 7.16491 7.02528 7.08341 7.11152C7.00192 7.19776 6.838 7.3765 6.71912 7.50873C6.51337 7.73761 6.11109 8.17405 5.97671 8.31423C5.94221 8.35021 5.81521 8.4867 5.69447 8.61755C5.57374 8.74842 5.40837 8.92642 5.32699 9.01312C5.2456 9.09984 5.11912 9.23662 5.04595 9.31711C4.97275 9.3976 4.8506 9.52931 4.77446 9.6098C4.60161 9.79256 4.37145 10.0397 4.07425 10.3616C3.94777 10.4986 3.76697 10.6913 3.67248 10.7897C3.57796 10.8881 3.50036 10.9851 3.5 11.0052C3.49962 11.0254 3.60988 11.1526 3.74498 11.2881C3.97413 11.5179 4.54702 12.117 4.85823 12.4524C4.93297 12.5329 5.06083 12.6695 5.14234 12.7559C5.22388 12.8423 5.35036 12.9788 5.42343 13.0593C5.49649 13.1398 5.5756 13.2249 5.59925 13.2485C5.62287 13.2721 5.70254 13.3568 5.7763 13.4367C5.85006 13.5166 6.00207 13.6807 6.11412 13.8015C6.22618 13.9222 6.457 14.1715 6.62705 14.3555C6.7971 14.5395 6.94201 14.6947 6.94903 14.7004C6.95605 14.7062 7.15803 14.9226 7.39788 15.1813C7.63772 15.44 7.90998 15.732 8.00291 15.8302C8.43792 16.2901 9.91456 17.8808 10.5529 18.5772C10.6576 18.6914 10.7668 18.8095 10.7956 18.8395C10.8243 18.8695 10.9795 19.0391 11.1405 19.2164C11.463 19.5716 11.6668 19.7939 11.8304 19.9688C11.8896 20.032 12.0868 20.2484 12.2688 20.4496C12.6453 20.8661 12.8432 21.0768 12.858 21.0768C12.8636 21.0768 12.9201 20.9663 12.9836 20.8312C13.0471 20.6961 13.1346 20.5102 13.178 20.4183C13.2214 20.3263 13.3201 20.1099 13.3974 19.9374C13.4747 19.7649 13.5833 19.525 13.6387 19.4043C13.6941 19.2836 13.7655 19.1236 13.7974 19.0489C13.8711 18.8763 13.8847 18.8592 13.9391 18.8701C14.0324 18.8889 14.4297 18.9727 15.2277 19.1418C16.043 19.3146 16.2616 19.3606 16.7329 19.4579C16.8651 19.4852 17.0815 19.5305 17.2137 19.5586C18.6695 19.8679 19.3105 20.008 19.5519 20.0695C19.6569 20.0963 19.7077 20.1014 19.7127 20.0858C19.7166 20.0732 19.7384 19.997 19.761 19.9165C19.8259 19.6852 20.014 19.0605 20.1199 18.7249C20.2278 18.3826 20.3078 18.1264 20.3482 17.9932C20.4498 17.658 20.6953 16.8609 20.757 16.6656C20.7951 16.5449 20.8565 16.3358 20.8933 16.2011L20.9604 15.956L21.2247 15.9502L21.489 15.9444L21.4945 15.1795L21.5 14.4147L21.4368 14.3328C21.3738 14.2511 21.2657 14.1252 20.6737 13.4433C20.5012 13.2446 20.3366 13.0522 20.3078 13.0158C20.2454 12.9365 19.9583 12.5953 19.9059 12.5379C19.857 12.4845 19.8583 12.4769 19.9308 12.3943C19.9879 12.3293 20.0361 12.2364 20.0361 12.1912C20.0361 12.1559 19.9204 12.0633 19.5343 11.7896C19.3216 11.6388 19.0095 11.4159 18.8407 11.2943C18.672 11.1727 18.4149 10.9886 18.2694 10.8851C18.1239 10.7816 17.9374 10.6473 17.8549 10.5866C17.7725 10.5259 17.6815 10.46 17.6528 10.4402C17.3959 10.2631 16.8796 9.86504 16.8794 9.84388C16.8787 9.77383 17.2626 9.36752 17.5242 9.16149L17.6901 9.03082L17.7992 8.57814C17.8592 8.32917 17.9223 8.06902 17.9394 8.00003C17.9566 7.93104 17.9888 7.79933 18.0111 7.70734C18.0334 7.61536 18.0571 7.51894 18.0637 7.49305C18.0728 7.45776 18.0667 7.44602 18.0396 7.44602C18.0197 7.44602 17.9034 7.42189 17.7811 7.39241C17.6588 7.36293 17.427 7.30703 17.266 7.26819C16.5029 7.08409 16.2498 7.02317 16.0953 6.98637C15.7339 6.90039 15.486 6.84264 15.4226 6.82972C15.3527 6.81549 15.3179 6.75327 14.5642 5.29791L14.4099 5L14.3223 5.00209C14.2741 5.00324 14.1076 5.02208 13.9524 5.04397ZM15.377 7.13109C15.4501 7.15333 15.8204 7.24739 16.1998 7.34008C16.5792 7.43276 16.9603 7.52711 17.0465 7.54973C17.1327 7.57237 17.2957 7.61237 17.4087 7.63864L17.6141 7.68641L17.6008 7.78051C17.5816 7.91651 17.5193 8.18306 17.4193 8.55837L17.3317 8.88674L17.2466 8.90714C17.1998 8.91837 17.1212 8.93882 17.0719 8.95259C17.0226 8.96637 16.9784 8.97377 16.9737 8.96905C16.969 8.96432 16.9575 8.87606 16.9483 8.77293L16.9315 8.5854L16.3984 8.59324C16.1052 8.59755 15.4732 8.60695 14.9941 8.61415L14.1229 8.62721L14.116 9.50466L14.1092 10.3821L14.5378 10.4912C14.7735 10.5511 15.2015 10.6594 15.489 10.7318L16.0116 10.8634L16.9512 11.7989C17.8817 12.7254 17.8915 12.7344 17.9651 12.7247C18.0061 12.7193 18.2888 12.7 18.5935 12.6818C18.8983 12.6636 19.2228 12.6414 19.3148 12.6324C19.4068 12.6235 19.4915 12.62 19.503 12.6246C19.5145 12.6291 19.5615 12.6812 19.6075 12.7401C19.6535 12.7991 19.7288 12.8911 19.7747 12.9444C19.8207 12.9978 19.9242 13.1198 20.0047 13.2155C20.0852 13.3112 20.2814 13.541 20.4406 13.7262C20.5999 13.9113 20.7939 14.1381 20.8718 14.2301C20.9497 14.322 21.0381 14.4201 21.0683 14.448L21.1232 14.4987V15.0908V15.683L20.7207 15.683C20.4994 15.6831 19.1346 15.6893 17.6879 15.697L15.0575 15.7109L15.0699 15.5872C15.0768 15.5192 15.1009 15.2048 15.1236 14.8886C15.1953 13.8903 15.2586 13.0631 15.323 12.2825C15.334 12.1496 15.3311 12.1315 15.2972 12.1212C15.2762 12.1148 14.8827 12.0101 14.4228 11.8885C13.9628 11.7669 13.4689 11.636 13.3252 11.5977C13.1815 11.5593 12.9463 11.4972 12.8026 11.4596C12.6588 11.422 12.5294 11.382 12.515 11.3707C12.4942 11.3544 12.4899 10.9584 12.4941 9.46883L12.4994 7.58749L13.2625 7.43512C13.6822 7.35131 14.1808 7.25385 14.3705 7.21854C14.5602 7.18325 14.786 7.14091 14.8723 7.12448C15.0923 7.08256 15.2234 7.08428 15.377 7.13109ZM8.97673 9.5212C9.66609 9.81587 9.84752 9.89203 9.86014 9.89203C9.86708 9.89203 9.93223 9.91864 10.0049 9.9512C10.0776 9.98373 10.177 10.0275 10.2259 10.0485L10.3147 10.0865V10.3342V10.5819H9.6141H8.91347L8.91897 11.3189L8.92447 12.0558L9.14921 12.0618L9.37395 12.0677V11.7638V11.46H9.95932H10.5447V12.2933V13.1267L9.26419 13.1182C8.55993 13.1135 7.97312 13.1062 7.96017 13.1019C7.94725 13.0975 7.93005 13.0486 7.92196 12.993C7.91387 12.9375 7.87448 12.7227 7.83442 12.5157C7.79439 12.3088 7.74442 12.0501 7.72341 11.9408C7.63759 11.4948 7.5071 10.8651 7.42667 10.5088L7.38421 10.3207L7.5247 10.1952C7.60197 10.1262 7.85916 9.90401 8.09623 9.70147C8.44768 9.40122 8.53497 9.33614 8.56907 9.34902C8.59206 9.35771 8.77551 9.43519 8.97673 9.5212Z" fill="black"/>
<rect x="0.5" y="1" width="24" height="24" rx="2" stroke="black" stroke-width="0.5"/>
<path d="M33.2188 12.3125H37.2031V18.4688C36.6146 18.7031 36.013 18.8776 35.3984 18.9922C34.7891 19.1016 34.1641 19.1562 33.5234 19.1562C32.5859 19.1562 31.7891 18.9271 31.1328 18.4688C30.4818 18.0104 29.9844 17.3411 29.6406 16.4609C29.2969 15.5807 29.125 14.513 29.125 13.2578C29.125 12.0339 29.3203 10.987 29.7109 10.1172C30.1016 9.2474 30.6641 8.58073 31.3984 8.11719C32.1328 7.64844 33.0182 7.41406 34.0547 7.41406C34.6432 7.41406 35.1901 7.48177 35.6953 7.61719C36.2057 7.7526 36.651 7.92448 37.0312 8.13281L36.2734 10.3594C35.9609 10.1615 35.625 10.0104 35.2656 9.90625C34.9115 9.80208 34.5391 9.75 34.1484 9.75C33.6641 9.75 33.2578 9.89062 32.9297 10.1719C32.6068 10.4479 32.362 10.8516 32.1953 11.3828C32.0339 11.9141 31.9531 12.5651 31.9531 13.3359C31.9531 14.0859 32.0182 14.7188 32.1484 15.2344C32.2786 15.75 32.4714 16.1406 32.7266 16.4062C32.987 16.6719 33.3073 16.8047 33.6875 16.8047C33.8281 16.8047 33.9688 16.7943 34.1094 16.7734C34.2552 16.7474 34.3958 16.7161 34.5312 16.6797V14.5859H33.2188V12.3125ZM43.1328 9.99219C43.237 9.99219 43.3438 9.9974 43.4531 10.0078C43.5625 10.0182 43.6979 10.0443 43.8594 10.0859L43.6484 12.875C43.5443 12.8385 43.4271 12.8125 43.2969 12.7969C43.1667 12.7812 43.0182 12.7734 42.8516 12.7734C42.5964 12.7734 42.375 12.8125 42.1875 12.8906C42.0052 12.9688 41.8542 13.0833 41.7344 13.2344C41.6198 13.3802 41.5339 13.5651 41.4766 13.7891C41.4193 14.0078 41.3906 14.263 41.3906 14.5547V19H38.7969V10.1484H40.7812L41.1562 11.5625H41.2812C41.3854 11.3229 41.526 11.0833 41.7031 10.8438C41.8802 10.599 42.0885 10.3958 42.3281 10.2344C42.5729 10.0729 42.8411 9.99219 43.1328 9.99219ZM47.9219 10.0078C48.625 10.0078 49.2266 10.1641 49.7266 10.4766C50.2266 10.7891 50.6068 11.2448 50.8672 11.8438C51.1328 12.4427 51.2656 13.1745 51.2656 14.0391V15.3984H47.0391C47.0391 15.9922 47.1615 16.4245 47.4062 16.6953C47.6562 16.9609 48.0365 17.0938 48.5469 17.0938C48.9531 17.0938 49.3307 17.0417 49.6797 16.9375C50.0286 16.8333 50.4062 16.6562 50.8125 16.4062V18.5234C50.4323 18.7474 50.0234 18.9089 49.5859 19.0078C49.1484 19.1068 48.6745 19.1562 48.1641 19.1562C47.3099 19.1562 46.612 18.9844 46.0703 18.6406C45.5339 18.2917 45.138 17.7786 44.8828 17.1016C44.6276 16.4245 44.5 15.5964 44.5 14.6172C44.5 13.6276 44.6276 12.7917 44.8828 12.1094C45.1432 11.4219 45.526 10.901 46.0312 10.5469C46.5417 10.1875 47.1719 10.0078 47.9219 10.0078ZM47.9844 12.0078C47.7135 12.0078 47.487 12.125 47.3047 12.3594C47.1276 12.5938 47.0391 13 47.0391 13.5781H48.8672C48.8672 13.2031 48.8307 12.901 48.7578 12.6719C48.6849 12.4375 48.5807 12.2682 48.4453 12.1641C48.3151 12.0599 48.1615 12.0078 47.9844 12.0078ZM55.9609 9.99219C56.8411 9.99219 57.5365 10.2552 58.0469 10.7812C58.5625 11.3073 58.8203 12.112 58.8203 13.1953V19H56.9531L56.5156 17.8281H56.4688C56.2812 18.125 56.0807 18.3724 55.8672 18.5703C55.6589 18.7682 55.4193 18.9141 55.1484 19.0078C54.8828 19.1068 54.5651 19.1562 54.1953 19.1562C53.6901 19.1562 53.2839 19.0182 52.9766 18.7422C52.6693 18.4661 52.4453 18.1094 52.3047 17.6719C52.1693 17.2344 52.1016 16.776 52.1016 16.2969C52.1016 15.349 52.3542 14.6406 52.8594 14.1719C53.3698 13.7031 54.1094 13.4505 55.0781 13.4141L56.2344 13.3672V13.1406C56.2344 12.7812 56.1641 12.5104 56.0234 12.3281C55.888 12.1458 55.6745 12.0547 55.3828 12.0547C55.1276 12.0547 54.8438 12.1094 54.5312 12.2188C54.224 12.3229 53.8724 12.487 53.4766 12.7109L52.8047 10.7891C53.237 10.5339 53.7188 10.3385 54.25 10.2031C54.7812 10.0625 55.3516 9.99219 55.9609 9.99219ZM56.2344 15.0469L55.75 15.0781C55.401 15.0938 55.138 15.1953 54.9609 15.3828C54.7839 15.5651 54.6953 15.8333 54.6953 16.1875C54.6953 16.4896 54.7474 16.7161 54.8516 16.8672C54.9557 17.0182 55.112 17.0938 55.3203 17.0938C55.5755 17.0938 55.7917 16.9792 55.9688 16.75C56.1458 16.5156 56.2344 16.2083 56.2344 15.8281V15.0469ZM63.8516 16.9219C64.013 16.9219 64.1875 16.8958 64.375 16.8438C64.5677 16.7865 64.7708 16.7109 64.9844 16.6172V18.6641C64.6979 18.8255 64.3958 18.9479 64.0781 19.0312C63.7656 19.1146 63.4271 19.1562 63.0625 19.1562C62.4844 19.1562 62.0156 19.0469 61.6562 18.8281C61.2969 18.6042 61.0339 18.2656 60.8672 17.8125C60.7005 17.3542 60.6172 16.7786 60.6172 16.0859V12.2812H59.7188V10.9062L60.8438 10.2344L61.4531 8.375H63.2109V10.1484H64.875V12.2812H63.2109V16.0547C63.2109 16.3411 63.263 16.5573 63.3672 16.7031C63.4714 16.849 63.6328 16.9219 63.8516 16.9219ZM71.5547 19L71.125 16.7734H68.6562L68.2266 19H65.2812L68.0625 7.57812H71.6484L74.4688 19H71.5547ZM70.7031 14.4375L70.2422 11.8828C70.1901 11.5964 70.1406 11.3177 70.0938 11.0469C70.0521 10.776 70.013 10.5182 69.9766 10.2734C69.9453 10.0234 69.9167 9.79167 69.8906 9.57812C69.8698 9.78125 69.8411 10.0052 69.8047 10.25C69.7734 10.4948 69.7344 10.7526 69.6875 11.0234C69.6406 11.2891 69.5911 11.5651 69.5391 11.8516L69.0547 14.4375H70.7031ZM79.7188 9.99219C80.5417 9.99219 81.1849 10.4036 81.6484 11.2266C82.112 12.0443 82.3438 13.1693 82.3438 14.6016C82.3438 15.5443 82.2396 16.3568 82.0312 17.0391C81.8229 17.7161 81.526 18.2396 81.1406 18.6094C80.7604 18.974 80.3073 19.1562 79.7812 19.1562C79.5156 19.1562 79.2656 19.112 79.0312 19.0234C78.8021 18.9349 78.5885 18.7969 78.3906 18.6094C78.1979 18.4167 78.0208 18.1693 77.8594 17.8672H77.7812C77.8073 18.263 77.8255 18.6042 77.8359 18.8906C77.8516 19.1719 77.8594 19.3958 77.8594 19.5625V22.8438H75.2656V10.1484H77.3516L77.7344 11.2891H77.8594C78.0573 10.9245 78.2474 10.651 78.4297 10.4688C78.6172 10.2812 78.8125 10.1562 79.0156 10.0938C79.224 10.026 79.4583 9.99219 79.7188 9.99219ZM78.8516 12.1484C78.6172 12.1484 78.4271 12.224 78.2812 12.375C78.1354 12.526 78.0286 12.7656 77.9609 13.0938C77.8932 13.4219 77.8594 13.8542 77.8594 14.3906V14.9062C77.8594 15.375 77.8932 15.7604 77.9609 16.0625C78.0286 16.3594 78.1328 16.5807 78.2734 16.7266C78.4193 16.8672 78.6068 16.9375 78.8359 16.9375C79.0339 16.9375 79.1979 16.8542 79.3281 16.6875C79.4583 16.5156 79.5547 16.2578 79.6172 15.9141C79.6849 15.5703 79.7188 15.1432 79.7188 14.6328C79.7188 13.7943 79.6432 13.1719 79.4922 12.7656C79.3464 12.3542 79.1328 12.1484 78.8516 12.1484ZM86.7969 10.0078C87.5 10.0078 88.1016 10.1641 88.6016 10.4766C89.1016 10.7891 89.4818 11.2448 89.7422 11.8438C90.0078 12.4427 90.1406 13.1745 90.1406 14.0391V15.3984H85.9141C85.9141 15.9922 86.0365 16.4245 86.2812 16.6953C86.5312 16.9609 86.9115 17.0938 87.4219 17.0938C87.8281 17.0938 88.2057 17.0417 88.5547 16.9375C88.9036 16.8333 89.2812 16.6562 89.6875 16.4062V18.5234C89.3073 18.7474 88.8984 18.9089 88.4609 19.0078C88.0234 19.1068 87.5495 19.1562 87.0391 19.1562C86.1849 19.1562 85.487 18.9844 84.9453 18.6406C84.4089 18.2917 84.013 17.7786 83.7578 17.1016C83.5026 16.4245 83.375 15.5964 83.375 14.6172C83.375 13.6276 83.5026 12.7917 83.7578 12.1094C84.0182 11.4219 84.401 10.901 84.9062 10.5469C85.4167 10.1875 86.0469 10.0078 86.7969 10.0078ZM86.8594 12.0078C86.5885 12.0078 86.362 12.125 86.1797 12.3594C86.0026 12.5938 85.9141 13 85.9141 13.5781H87.7422C87.7422 13.2031 87.7057 12.901 87.6328 12.6719C87.5599 12.4375 87.4557 12.2682 87.3203 12.1641C87.1901 12.0599 87.0365 12.0078 86.8594 12.0078Z" fill="#1A1A1A"/>
</svg>
