<svg width="764" height="560" viewBox="0 0 764 560" fill="none" xmlns="http://www.w3.org/2000/svg">
<path fill-rule="evenodd" clip-rule="evenodd" d="M400.343 1.3192C396.804 1.84153 390.647 2.71843 383.049 3.78216C380.87 4.08699 375.049 4.90724 370.111 5.6045C365.174 6.30177 359.887 7.04104 358.362 7.24749C346.367 8.87113 342.612 9.40257 330.131 11.2443C329.198 11.3819 328.294 11.6549 328.123 11.8509C323.766 16.8368 319.223 22.0951 317.573 24.0631C316.413 25.4463 314.622 27.5108 313.593 28.6508C312.563 29.7908 310.493 32.1537 308.992 33.9017C306.393 36.9273 301.313 42.6967 299.616 44.5497C299.18 45.0254 297.576 46.8297 296.051 48.5595C294.526 50.2895 292.438 52.6425 291.41 53.7886C290.382 54.9349 288.785 56.7432 287.861 57.8072C286.936 58.8712 285.394 60.6123 284.432 61.6763C282.249 64.0923 279.342 67.3589 275.589 71.6149C273.992 73.4259 271.708 75.9726 270.515 77.274C269.321 78.5751 268.341 79.8575 268.337 80.123C268.332 80.3889 269.724 82.0714 271.431 83.8623C274.325 86.8995 281.56 94.8198 285.49 99.2532C286.434 100.318 288.049 102.123 289.078 103.266C290.108 104.407 291.705 106.212 292.628 107.276C293.551 108.34 294.55 109.466 294.849 109.778C295.147 110.089 296.153 111.209 297.085 112.265C298.016 113.321 299.936 115.491 301.351 117.087C302.766 118.683 305.681 121.979 307.829 124.411C309.977 126.843 311.807 128.895 311.895 128.971C311.984 129.047 314.535 131.907 317.564 135.327C320.593 138.747 324.031 142.608 325.205 143.906C330.699 149.985 349.348 171.013 357.409 180.219C358.732 181.729 360.111 183.289 360.474 183.686C360.837 184.083 362.798 186.325 364.831 188.669C368.904 193.365 371.477 196.303 373.544 198.615C374.291 199.451 376.782 202.311 379.08 204.971C383.834 210.476 386.335 213.262 386.521 213.262C386.592 213.262 387.306 211.801 388.108 210.015C388.91 208.229 390.014 205.773 390.562 204.557C391.111 203.341 392.358 200.48 393.334 198.2C394.31 195.92 395.681 192.749 396.381 191.153C397.08 189.557 397.982 187.443 398.385 186.455C399.316 184.173 399.487 183.947 400.175 184.091C401.353 184.34 406.371 185.447 416.448 187.683C426.745 189.967 429.507 190.574 435.458 191.861C437.128 192.222 439.861 192.821 441.531 193.193C459.917 197.282 468.012 199.133 471.06 199.947C472.387 200.301 473.027 200.369 473.09 200.161C473.141 199.995 473.416 198.988 473.701 197.924C474.52 194.866 476.897 186.608 478.233 182.171C479.597 177.647 480.606 174.26 481.117 172.498C482.401 168.068 485.501 157.53 486.28 154.949C486.761 153.353 487.536 150.59 488.002 148.808L488.848 145.569L492.187 145.492L495.525 145.415L495.594 135.304L495.663 125.194L494.865 124.112C494.069 123.031 492.705 121.366 485.228 112.352C483.05 109.726 480.97 107.183 480.607 106.701C479.818 105.653 476.193 101.143 475.531 100.384C474.913 99.6772 474.929 99.578 475.846 98.4861C476.567 97.626 477.175 96.3979 477.175 95.8004C477.175 95.3336 475.714 94.1093 470.838 90.4914C468.152 88.4977 464.21 85.5514 462.079 83.9441C459.948 82.3367 456.7 79.9025 454.863 78.5345C453.026 77.1665 450.67 75.3909 449.629 74.5886C448.588 73.7863 447.439 72.9157 447.076 72.654C443.832 70.3129 437.311 65.0504 437.309 64.7707C437.3 63.8446 442.149 58.4735 445.452 55.7499L447.547 54.0227L448.925 48.0386C449.683 44.7473 450.48 41.3083 450.696 40.3963C450.912 39.4843 451.32 37.7432 451.601 36.5272C451.883 35.3112 452.182 34.0366 452.266 33.6944C452.38 33.2279 452.304 33.0726 451.961 33.0726C451.71 33.0726 450.24 32.7537 448.696 32.364C447.151 31.9743 444.224 31.2353 442.191 30.7219C432.554 28.2882 429.357 27.4829 427.406 26.9965C422.842 25.8598 419.711 25.0965 418.911 24.9257C418.028 24.7375 417.587 23.915 408.069 4.6762L406.121 0.738007L405.014 0.765643C404.405 0.780843 402.303 1.02985 400.343 1.3192ZM418.335 28.9095C419.258 29.2035 423.934 30.4469 428.726 31.6723C433.518 32.8974 438.33 34.1446 439.419 34.4436C440.508 34.743 442.567 35.2716 443.993 35.619L446.588 36.2505L446.42 37.4944C446.176 39.2922 445.391 42.8158 444.127 47.7771L443.021 52.118L441.946 52.3877C441.355 52.5361 440.362 52.8064 439.739 52.9885C439.117 53.1706 438.559 53.2685 438.499 53.206C438.44 53.1436 438.295 51.9767 438.179 50.6134L437.967 48.1345L431.234 48.2381C427.531 48.295 419.55 48.4194 413.498 48.5145L402.495 48.6872L402.409 60.2865L402.323 71.8855L407.735 73.3272C410.712 74.1201 416.118 75.5517 419.749 76.5085L426.349 78.2482L438.215 90.6152C449.966 102.863 450.09 102.981 451.021 102.853C451.538 102.781 455.109 102.526 458.957 102.286C462.805 102.045 466.904 101.752 468.066 101.634C469.228 101.516 470.297 101.469 470.442 101.529C470.587 101.59 471.182 102.278 471.762 103.057C472.343 103.837 473.294 105.052 473.875 105.758C474.455 106.464 475.762 108.076 476.779 109.341C477.795 110.606 480.273 113.644 482.284 116.092C484.295 118.539 486.746 121.537 487.73 122.753C488.714 123.969 489.83 125.265 490.212 125.634L490.904 126.304V134.132V141.96L485.822 141.96C483.027 141.961 465.791 142.044 447.52 142.144L414.3 142.328L414.457 140.693C414.543 139.794 414.848 135.638 415.135 131.458C416.04 118.262 416.839 107.326 417.653 97.0072C417.791 95.2501 417.755 95.0116 417.327 94.8751C417.061 94.7902 412.092 93.4059 406.283 91.7989C400.475 90.1915 394.237 88.4618 392.422 87.9547C390.607 87.4475 387.636 86.6262 385.821 86.1293C384.006 85.6324 382.371 85.1034 382.189 84.9542C381.927 84.7392 381.872 79.5034 381.925 59.8128L381.993 34.9428L391.63 32.9286C396.93 31.8207 403.227 30.5323 405.623 30.0655C408.019 29.599 410.871 29.0393 411.96 28.8221C414.738 28.268 416.394 28.2907 418.335 28.9095ZM337.504 60.5051C346.21 64.4004 348.501 65.4072 348.661 65.4072C348.748 65.4072 349.571 65.759 350.489 66.1893C351.406 66.6193 352.662 67.1981 353.279 67.475L354.402 67.9785V71.2529V74.5272H345.553H336.705L336.774 84.2691L336.844 94.0109L339.682 94.0894L342.52 94.1679V90.1512V86.1345H349.913H357.306V97.1507V108.167L341.134 108.055C332.24 107.993 324.829 107.896 324.665 107.839C324.502 107.782 324.285 107.134 324.183 106.4C324.081 105.666 323.583 102.827 323.077 100.091C322.572 97.3549 321.941 93.9349 321.675 92.4909C320.591 86.5952 318.943 78.27 317.928 73.5608L317.391 71.0743L319.166 69.4153C320.142 68.5028 323.39 65.5656 326.384 62.8882C330.822 58.919 331.925 58.0587 332.355 58.2289C332.646 58.3439 334.962 59.3681 337.504 60.5051Z" fill="black"/>
<path d="M33.0312 382.45H60.9219V425.543C56.8021 427.184 52.5911 428.405 48.2891 429.207C44.0234 429.973 39.6484 430.356 35.1641 430.356C28.6016 430.356 23.0234 428.752 18.4297 425.543C13.8724 422.335 10.3906 417.65 7.98438 411.489C5.57812 405.327 4.375 397.853 4.375 389.067C4.375 380.499 5.74219 373.171 8.47656 367.082C11.2109 360.994 15.1484 356.327 20.2891 353.082C25.4297 349.801 31.6276 348.16 38.8828 348.16C43.0026 348.16 46.8307 348.634 50.3672 349.582C53.9401 350.53 57.0573 351.733 59.7188 353.192L54.4141 368.778C52.2266 367.392 49.875 366.335 47.3594 365.606C44.8802 364.877 42.2734 364.512 39.5391 364.512C36.1484 364.512 33.3047 365.496 31.0078 367.465C28.7474 369.397 27.0339 372.223 25.8672 375.942C24.737 379.66 24.1719 384.218 24.1719 389.614C24.1719 394.864 24.6276 399.293 25.5391 402.903C26.4505 406.512 27.7995 409.246 29.5859 411.106C31.4089 412.965 33.651 413.895 36.3125 413.895C37.2969 413.895 38.2812 413.822 39.2656 413.676C40.2865 413.494 41.2708 413.275 42.2188 413.02V398.364H33.0312V382.45ZM102.43 366.207C103.159 366.207 103.906 366.244 104.672 366.317C105.438 366.39 106.385 366.572 107.516 366.864L106.039 386.387C105.31 386.132 104.49 385.95 103.578 385.84C102.667 385.731 101.628 385.676 100.461 385.676C98.6745 385.676 97.125 385.95 95.8125 386.496C94.5365 387.043 93.4792 387.845 92.6406 388.903C91.8385 389.923 91.237 391.218 90.8359 392.785C90.4349 394.317 90.2344 396.103 90.2344 398.145V429.262H72.0781V367.301H85.9688L88.5938 377.2H89.4688C90.1979 375.522 91.1823 373.845 92.4219 372.168C93.6615 370.455 95.1198 369.033 96.7969 367.903C98.5104 366.772 100.388 366.207 102.43 366.207ZM135.953 366.317C140.875 366.317 145.086 367.41 148.586 369.598C152.086 371.785 154.747 374.976 156.57 379.168C158.43 383.361 159.359 388.483 159.359 394.535V404.051H129.773C129.773 408.207 130.63 411.233 132.344 413.129C134.094 414.989 136.755 415.918 140.328 415.918C143.172 415.918 145.815 415.554 148.258 414.825C150.701 414.095 153.344 412.856 156.188 411.106V425.926C153.526 427.494 150.664 428.624 147.602 429.317C144.539 430.009 141.221 430.356 137.648 430.356C131.669 430.356 126.784 429.153 122.992 426.746C119.237 424.304 116.466 420.713 114.68 415.973C112.893 411.233 112 405.437 112 398.582C112 391.655 112.893 385.804 114.68 381.028C116.503 376.215 119.182 372.569 122.719 370.09C126.292 367.575 130.703 366.317 135.953 366.317ZM136.391 380.317C134.495 380.317 132.909 381.137 131.633 382.778C130.393 384.418 129.773 387.262 129.773 391.309H142.57C142.57 388.684 142.315 386.569 141.805 384.965C141.294 383.325 140.565 382.14 139.617 381.41C138.706 380.681 137.63 380.317 136.391 380.317ZM192.227 366.207C198.388 366.207 203.255 368.048 206.828 371.731C210.438 375.413 212.242 381.046 212.242 388.629V429.262H199.172L196.109 421.059H195.781C194.469 423.137 193.065 424.869 191.57 426.254C190.112 427.64 188.435 428.66 186.539 429.317C184.68 430.009 182.456 430.356 179.867 430.356C176.331 430.356 173.487 429.39 171.336 427.457C169.185 425.525 167.617 423.028 166.633 419.965C165.685 416.903 165.211 413.694 165.211 410.34C165.211 403.705 166.979 398.746 170.516 395.465C174.089 392.184 179.266 390.416 186.047 390.16L194.141 389.832V388.246C194.141 385.731 193.648 383.835 192.664 382.559C191.716 381.283 190.221 380.645 188.18 380.645C186.393 380.645 184.406 381.028 182.219 381.793C180.068 382.522 177.607 383.671 174.836 385.239L170.133 371.785C173.159 369.999 176.531 368.632 180.25 367.684C183.969 366.7 187.961 366.207 192.227 366.207ZM194.141 401.59L190.75 401.809C188.307 401.918 186.466 402.629 185.227 403.942C183.987 405.218 183.367 407.095 183.367 409.575C183.367 411.689 183.732 413.275 184.461 414.332C185.19 415.39 186.284 415.918 187.742 415.918C189.529 415.918 191.042 415.116 192.281 413.512C193.521 411.871 194.141 409.72 194.141 407.059V401.59ZM247.461 414.715C248.591 414.715 249.812 414.533 251.125 414.168C252.474 413.767 253.896 413.239 255.391 412.582V426.91C253.385 428.041 251.271 428.897 249.047 429.481C246.859 430.064 244.49 430.356 241.938 430.356C237.891 430.356 234.609 429.59 232.094 428.059C229.578 426.491 227.737 424.121 226.57 420.95C225.404 417.741 224.82 413.713 224.82 408.864V382.231H218.531V372.606L226.406 367.903L230.672 354.887H242.977V367.301H254.625V382.231H242.977V408.645C242.977 410.65 243.341 412.163 244.07 413.184C244.799 414.205 245.93 414.715 247.461 414.715ZM301.383 429.262L298.375 413.676H281.094L278.086 429.262H257.469L276.938 349.309H302.039L321.781 429.262H301.383ZM295.422 397.325L292.195 379.442C291.831 377.437 291.484 375.486 291.156 373.59C290.865 371.694 290.591 369.89 290.336 368.176C290.117 366.426 289.917 364.804 289.734 363.309C289.589 364.731 289.388 366.298 289.133 368.012C288.914 369.726 288.641 371.53 288.312 373.426C287.984 375.285 287.638 377.218 287.273 379.223L283.883 397.325H295.422ZM358.531 366.207C364.292 366.207 368.794 369.088 372.039 374.848C375.284 380.572 376.906 388.447 376.906 398.473C376.906 405.072 376.177 410.759 374.719 415.535C373.26 420.275 371.182 423.939 368.484 426.528C365.823 429.08 362.651 430.356 358.969 430.356C357.109 430.356 355.359 430.046 353.719 429.426C352.115 428.806 350.62 427.84 349.234 426.528C347.885 425.179 346.646 423.447 345.516 421.332H344.969C345.151 424.103 345.279 426.491 345.352 428.496C345.461 430.465 345.516 432.033 345.516 433.2V456.168H327.359V367.301H341.961L344.641 375.285H345.516C346.901 372.733 348.232 370.819 349.508 369.543C350.82 368.231 352.188 367.356 353.609 366.918C355.068 366.444 356.708 366.207 358.531 366.207ZM352.461 381.301C350.82 381.301 349.49 381.83 348.469 382.887C347.448 383.944 346.701 385.621 346.227 387.918C345.753 390.215 345.516 393.241 345.516 396.996V400.606C345.516 403.887 345.753 406.585 346.227 408.7C346.701 410.778 347.43 412.327 348.414 413.348C349.435 414.332 350.747 414.825 352.352 414.825C353.737 414.825 354.885 414.241 355.797 413.075C356.708 411.871 357.383 410.067 357.82 407.66C358.294 405.254 358.531 402.265 358.531 398.692C358.531 392.822 358.003 388.465 356.945 385.621C355.924 382.741 354.43 381.301 352.461 381.301ZM408.078 366.317C413 366.317 417.211 367.41 420.711 369.598C424.211 371.785 426.872 374.976 428.695 379.168C430.555 383.361 431.484 388.483 431.484 394.535V404.051H401.898C401.898 408.207 402.755 411.233 404.469 413.129C406.219 414.989 408.88 415.918 412.453 415.918C415.297 415.918 417.94 415.554 420.383 414.825C422.826 414.095 425.469 412.856 428.312 411.106V425.926C425.651 427.494 422.789 428.624 419.727 429.317C416.664 430.009 413.346 430.356 409.773 430.356C403.794 430.356 398.909 429.153 395.117 426.746C391.362 424.304 388.591 420.713 386.805 415.973C385.018 411.233 384.125 405.437 384.125 398.582C384.125 391.655 385.018 385.804 386.805 381.028C388.628 376.215 391.307 372.569 394.844 370.09C398.417 367.575 402.828 366.317 408.078 366.317ZM408.516 380.317C406.62 380.317 405.034 381.137 403.758 382.778C402.518 384.418 401.898 387.262 401.898 391.309H414.695C414.695 388.684 414.44 386.569 413.93 384.965C413.419 383.325 412.69 382.14 411.742 381.41C410.831 380.681 409.755 380.317 408.516 380.317ZM515.594 387.59C515.594 396.45 514.245 403.978 511.547 410.176C508.885 416.374 505.021 421.114 499.953 424.395C494.885 427.64 488.724 429.262 481.469 429.262H460.852V349.309H482.781C489.781 349.309 495.724 350.785 500.609 353.739C505.495 356.692 509.214 361.012 511.766 366.7C514.318 372.387 515.594 379.351 515.594 387.59ZM495.906 388.356C495.906 382.96 495.396 378.603 494.375 375.285C493.391 371.968 491.896 369.562 489.891 368.067C487.922 366.535 485.443 365.77 482.453 365.77H479.883V412.692H481.359C486.391 412.692 490.073 410.723 492.406 406.785C494.74 402.848 495.906 396.705 495.906 388.356ZM547.531 366.317C552.453 366.317 556.664 367.41 560.164 369.598C563.664 371.785 566.326 374.976 568.148 379.168C570.008 383.361 570.938 388.483 570.938 394.535V404.051H541.352C541.352 408.207 542.208 411.233 543.922 413.129C545.672 414.989 548.333 415.918 551.906 415.918C554.75 415.918 557.393 415.554 559.836 414.825C562.279 414.095 564.922 412.856 567.766 411.106V425.926C565.104 427.494 562.242 428.624 559.18 429.317C556.117 430.009 552.799 430.356 549.227 430.356C543.247 430.356 538.362 429.153 534.57 426.746C530.815 424.304 528.044 420.713 526.258 415.973C524.471 411.233 523.578 405.437 523.578 398.582C523.578 391.655 524.471 385.804 526.258 381.028C528.081 376.215 530.76 372.569 534.297 370.09C537.87 367.575 542.281 366.317 547.531 366.317ZM547.969 380.317C546.073 380.317 544.487 381.137 543.211 382.778C541.971 384.418 541.352 387.262 541.352 391.309H554.148C554.148 388.684 553.893 386.569 553.383 384.965C552.872 383.325 552.143 382.14 551.195 381.41C550.284 380.681 549.208 380.317 547.969 380.317ZM615.672 410.231C615.672 414.679 614.833 418.397 613.156 421.387C611.479 424.377 609.055 426.619 605.883 428.114C602.747 429.608 598.956 430.356 594.508 430.356C591.482 430.356 588.51 430.101 585.594 429.59C582.677 429.08 579.779 428.187 576.898 426.91V409.793C579.159 411.142 581.638 412.327 584.336 413.348C587.07 414.332 589.823 414.825 592.594 414.825C594.271 414.825 595.529 414.551 596.367 414.004C597.206 413.421 597.625 412.491 597.625 411.215C597.625 410.522 597.443 409.866 597.078 409.246C596.75 408.59 595.93 407.806 594.617 406.895C593.305 405.983 591.208 404.817 588.328 403.395C585.812 402.119 583.698 400.569 581.984 398.746C580.271 396.887 578.977 394.772 578.102 392.403C577.227 390.033 576.789 387.39 576.789 384.473C576.789 378.713 578.539 374.228 582.039 371.02C585.539 367.812 590.516 366.207 596.969 366.207C600.177 366.207 603.203 366.663 606.047 367.575C608.891 368.45 611.789 369.744 614.742 371.457L610.312 385.239C608.453 383.999 606.484 382.923 604.406 382.012C602.328 381.101 600.214 380.645 598.062 380.645C596.786 380.645 595.839 380.882 595.219 381.356C594.599 381.83 594.289 382.559 594.289 383.543C594.289 384.2 594.453 384.801 594.781 385.348C595.146 385.895 595.948 386.588 597.188 387.426C598.427 388.228 600.359 389.413 602.984 390.981C605.5 392.366 607.706 393.952 609.602 395.739C611.497 397.525 612.974 399.603 614.031 401.973C615.125 404.306 615.672 407.059 615.672 410.231ZM642.25 367.301V429.262H624.094V367.301H642.25ZM633.172 342.364C636.526 342.364 638.969 343.166 640.5 344.77C642.031 346.374 642.797 348.744 642.797 351.879C642.797 355.015 641.995 357.366 640.391 358.934C638.786 360.502 636.38 361.285 633.172 361.285C630 361.285 627.594 360.502 625.953 358.934C624.349 357.366 623.547 355.015 623.547 351.879C623.547 348.671 624.312 346.283 625.844 344.715C627.375 343.147 629.818 342.364 633.172 342.364ZM671.672 456.168C664.307 456.168 658.638 454.655 654.664 451.629C650.69 448.603 648.703 444.301 648.703 438.723C648.703 435.478 649.779 432.58 651.93 430.028C654.081 427.512 656.924 425.744 660.461 424.723C658.602 424.03 657.052 422.9 655.812 421.332C654.609 419.728 654.008 417.869 654.008 415.754C654.008 413.275 654.555 411.325 655.648 409.903C656.742 408.444 658.201 406.895 660.023 405.254C657.727 403.65 655.867 401.244 654.445 398.035C653.023 394.827 652.312 391.364 652.312 387.645C652.312 383.088 653.169 379.241 654.883 376.106C656.596 372.97 659.13 370.582 662.484 368.942C665.839 367.301 669.958 366.481 674.844 366.481C676.302 366.481 677.578 366.554 678.672 366.7C679.766 366.845 680.714 367.028 681.516 367.246C682.318 367.465 682.992 367.666 683.539 367.848H702.898V378.457L696.062 380.371C696.573 381.611 696.919 382.796 697.102 383.926C697.32 385.056 697.43 386.423 697.43 388.028C697.43 394.809 695.479 400.041 691.578 403.723C687.714 407.369 682.208 409.192 675.062 409.192C672.948 409.192 671.398 409.009 670.414 408.645C670.049 409.009 669.648 409.465 669.211 410.012C668.81 410.559 668.609 411.27 668.609 412.145C668.609 412.91 668.828 413.53 669.266 414.004C669.703 414.478 670.396 414.825 671.344 415.043C672.292 415.262 673.495 415.371 674.953 415.371H686C691.104 415.371 695.023 416.793 697.758 419.637C700.492 422.444 701.859 426.728 701.859 432.489C701.859 440.145 699.307 445.996 694.203 450.043C689.135 454.127 681.625 456.168 671.672 456.168ZM672.93 442.934C675.737 442.934 678.016 442.642 679.766 442.059C681.552 441.476 682.865 440.637 683.703 439.543C684.542 438.45 684.961 437.137 684.961 435.606C684.961 434.439 684.797 433.564 684.469 432.981C684.141 432.397 683.466 431.996 682.445 431.778C681.424 431.559 679.893 431.45 677.852 431.45H669.43C668.591 431.45 667.862 431.687 667.242 432.16C666.659 432.634 666.203 433.309 665.875 434.184C665.583 435.059 665.438 436.116 665.438 437.356C665.438 439.179 666.094 440.564 667.406 441.512C668.755 442.46 670.596 442.934 672.93 442.934ZM674.953 396.887C676.411 396.887 677.505 396.14 678.234 394.645C678.964 393.114 679.328 390.853 679.328 387.864C679.328 384.655 678.964 382.322 678.234 380.864C677.542 379.369 676.448 378.621 674.953 378.621C673.422 378.621 672.292 379.369 671.562 380.864C670.833 382.322 670.469 384.619 670.469 387.754C670.469 390.817 670.815 393.114 671.508 394.645C672.201 396.14 673.349 396.887 674.953 396.887ZM740.688 366.207C746.047 366.207 750.221 368.194 753.211 372.168C756.201 376.142 757.695 381.739 757.695 388.957V429.262H739.539V394.754C739.539 390.671 739.211 387.59 738.555 385.512C737.898 383.397 736.44 382.34 734.18 382.34C731.628 382.34 729.896 383.689 728.984 386.387C728.109 389.085 727.672 393.934 727.672 400.934V429.262H709.516V367.301H723.734L725.758 374.957H726.797C727.745 372.989 728.875 371.366 730.188 370.09C731.5 368.778 733.031 367.812 734.781 367.192C736.531 366.535 738.5 366.207 740.688 366.207Z" fill="black"/>
<path d="M293.344 545.262L283.5 519.785H285.891L292.477 537.106C293.352 539.325 294.008 541.262 294.445 542.918H294.586C295.227 540.793 295.883 538.84 296.555 537.059L303.141 519.785H305.531L295.688 545.262H293.344ZM320.086 545.731C316.383 545.731 313.492 544.59 311.414 542.309C309.352 540.028 308.32 536.832 308.32 532.723C308.32 528.66 309.32 525.41 311.32 522.973C313.32 520.52 316.016 519.293 319.406 519.293C322.406 519.293 324.773 520.34 326.508 522.434C328.242 524.528 329.109 527.371 329.109 530.965V532.84H310.758C310.789 536.34 311.602 539.012 313.195 540.856C314.805 542.7 317.102 543.621 320.086 543.621C321.539 543.621 322.812 543.52 323.906 543.317C325.016 543.114 326.414 542.676 328.102 542.004V544.114C326.664 544.739 325.336 545.16 324.117 545.379C322.898 545.614 321.555 545.731 320.086 545.731ZM319.406 521.356C316.953 521.356 314.984 522.168 313.5 523.793C312.016 525.403 311.148 527.731 310.898 530.778H326.648C326.648 527.825 326.008 525.52 324.727 523.864C323.445 522.192 321.672 521.356 319.406 521.356ZM346.172 519.293C347.25 519.293 348.406 519.403 349.641 519.621L349.195 521.848C348.133 521.582 347.031 521.45 345.891 521.45C343.719 521.45 341.938 522.371 340.547 524.215C339.156 526.059 338.461 528.387 338.461 531.2V545.262H336.141V519.785H338.109L338.344 524.379H338.508C339.555 522.504 340.672 521.192 341.859 520.442C343.047 519.676 344.484 519.293 346.172 519.293ZM370.641 538.629C370.641 540.91 369.773 542.668 368.039 543.903C366.305 545.121 363.844 545.731 360.656 545.731C357.25 545.731 354.547 545.207 352.547 544.16V541.653C355.109 542.934 357.812 543.575 360.656 543.575C363.172 543.575 365.078 543.16 366.375 542.332C367.688 541.489 368.344 540.371 368.344 538.981C368.344 537.7 367.82 536.621 366.773 535.746C365.742 534.871 364.039 534.012 361.664 533.168C359.117 532.246 357.328 531.457 356.297 530.801C355.266 530.129 354.484 529.379 353.953 528.551C353.438 527.707 353.18 526.684 353.18 525.481C353.18 523.575 353.977 522.067 355.57 520.957C357.18 519.848 359.422 519.293 362.297 519.293C365.047 519.293 367.656 519.809 370.125 520.84L369.258 522.95C366.758 521.918 364.438 521.403 362.297 521.403C360.219 521.403 358.57 521.746 357.352 522.434C356.133 523.121 355.523 524.075 355.523 525.293C355.523 526.621 355.992 527.684 356.93 528.481C357.883 529.278 359.734 530.168 362.484 531.153C364.781 531.981 366.453 532.731 367.5 533.403C368.547 534.059 369.328 534.809 369.844 535.653C370.375 536.496 370.641 537.489 370.641 538.629ZM379.523 545.262H377.203V519.785H379.523V545.262ZM376.875 512.707C376.875 511.207 377.367 510.457 378.352 510.457C378.836 510.457 379.211 510.653 379.477 511.043C379.758 511.434 379.898 511.989 379.898 512.707C379.898 513.41 379.758 513.965 379.477 514.371C379.211 514.778 378.836 514.981 378.352 514.981C377.367 514.981 376.875 514.223 376.875 512.707ZM409.148 532.489C409.148 536.645 408.141 539.895 406.125 542.239C404.109 544.567 401.328 545.731 397.781 545.731C395.547 545.731 393.578 545.192 391.875 544.114C390.172 543.035 388.867 541.489 387.961 539.473C387.055 537.457 386.602 535.129 386.602 532.489C386.602 528.332 387.609 525.098 389.625 522.785C391.641 520.457 394.406 519.293 397.922 519.293C401.422 519.293 404.164 520.473 406.148 522.832C408.148 525.176 409.148 528.395 409.148 532.489ZM389.039 532.489C389.039 535.989 389.805 538.723 391.336 540.692C392.883 542.645 395.062 543.621 397.875 543.621C400.688 543.621 402.859 542.645 404.391 540.692C405.938 538.723 406.711 535.989 406.711 532.489C406.711 528.973 405.93 526.246 404.367 524.309C402.82 522.371 400.641 521.403 397.828 521.403C395.016 521.403 392.844 522.371 391.312 524.309C389.797 526.231 389.039 528.957 389.039 532.489ZM433.969 545.262V528.739C433.969 526.176 433.43 524.317 432.352 523.16C431.273 521.989 429.602 521.403 427.336 521.403C424.289 521.403 422.055 522.176 420.633 523.723C419.227 525.254 418.523 527.746 418.523 531.2V545.262H416.203V519.785H418.172L418.617 523.278H418.758C420.414 520.621 423.359 519.293 427.594 519.293C433.375 519.293 436.266 522.395 436.266 528.598V545.262H433.969ZM468.703 545.262H466.406V520.301C466.406 518.035 466.5 515.684 466.688 513.246C466.453 513.481 466.211 513.707 465.961 513.926C465.711 514.145 463.297 516.043 458.719 519.621L457.383 517.957L466.688 510.996H468.703V545.262Z" fill="black"/>
</svg>
