<svg width="24" height="24" viewBox="0 0 24 24" fill="none" xmlns="http://www.w3.org/2000/svg">
<path fill-rule="evenodd" clip-rule="evenodd" d="M2 5C2 4.44772 2.44772 4 3 4H17C17.5523 4 18 4.44772 18 5V17C18 18.6569 16.6569 20 15 20H5C3.34315 20 2 18.6569 2 17V5ZM4 6V17C4 17.5523 4.44772 18 5 18H15C15.5523 18 16 17.5523 16 17V6H4Z" fill="#A8A8A8"/>
<path fill-rule="evenodd" clip-rule="evenodd" d="M19.5149 7.34097C20.7772 7.0254 22 7.98012 22 9.28126V14.7197C22 16.0208 20.7772 16.9756 19.5149 16.66L16.7575 15.9706C16.3123 15.8593 16 15.4594 16 15.0005V9.00048C16 8.54161 16.3123 8.14163 16.7575 8.03034L19.5149 7.34097ZM18 9.78126V14.2197L20 14.7197L20 9.28126L18 9.78126Z" fill="#A8A8A8"/>
</svg>
