<svg width="28" height="28" viewBox="0 0 32 32" fill="none" xmlns="http://www.w3.org/2000/svg">
<path fill-rule="evenodd" clip-rule="evenodd" d="M2.6665 6.66683C2.6665 5.93045 3.26346 5.3335 3.99984 5.3335H22.6665C23.4029 5.3335 23.9998 5.93045 23.9998 6.66683V22.6668C23.9998 24.876 22.209 26.6668 19.9998 26.6668H6.6665C4.45736 26.6668 2.6665 24.876 2.6665 22.6668V6.66683ZM5.33317 8.00016V22.6668C5.33317 23.4032 5.93012 24.0002 6.6665 24.0002H19.9998C20.7362 24.0002 21.3332 23.4032 21.3332 22.6668V8.00016H5.33317Z" fill="currentColor"/>
<path fill-rule="evenodd" clip-rule="evenodd" d="M26.0201 9.78748C27.7031 9.36671 29.3335 10.6397 29.3335 12.3745V19.6258C29.3335 21.3606 27.7031 22.6336 26.0201 22.2128L22.3434 21.2937C21.7499 21.1453 21.3335 20.612 21.3335 20.0002V12.0002C21.3335 11.3883 21.7499 10.855 22.3434 10.7066L26.0201 9.78748ZM24.0002 13.0412V18.9591L26.6668 19.6258L26.6668 12.3745L24.0002 13.0412Z" fill="currentColor"/>
</svg>
