<svg width="28" height="28" viewBox="0 0 32 32" fill="none" xmlns="http://www.w3.org/2000/svg">
<path d="M23.5296 11.3727C23.3162 11.3727 23.1029 11.3978 22.9021 11.4355V6.98056C22.9021 5.24879 21.4966 3.8433 19.7649 3.8433C19.5264 3.8433 19.3006 3.8684 19.0872 3.91859C18.8237 2.45036 17.5437 1.3335 16.0002 1.3335C14.67 1.3335 13.5406 2.16173 13.0762 3.32879C12.8127 3.2535 12.5241 3.21585 12.2355 3.21585C10.5037 3.21585 9.0982 4.62134 9.0982 6.3531V7.0433C8.89742 7.00565 8.68408 6.98056 8.47075 6.98056C6.73899 6.98056 5.3335 8.38604 5.3335 10.1178V20.7845C5.3335 26.67 10.1147 31.4511 16.0002 31.4511C21.8857 31.4511 26.6668 26.67 26.6668 20.7845V14.51C26.6668 12.7782 25.2613 11.3727 23.5296 11.3727ZM24.157 20.7845C24.157 25.2896 20.5053 28.9413 16.0002 28.9413C11.4951 28.9413 7.8433 25.2896 7.8433 20.7845V10.1178C7.8433 9.76644 8.11938 9.49036 8.47075 9.49036C8.82212 9.49036 9.0982 9.76644 9.0982 10.1178V16.3923H11.608V6.3531C11.608 6.00173 11.8841 5.72565 12.2355 5.72565C12.5868 5.72565 12.8629 6.00173 12.8629 6.3531V15.1374H15.3727V4.47075C15.3727 4.11938 15.6488 3.8433 16.0002 3.8433C16.3515 3.8433 16.6276 4.11938 16.6276 4.47075V15.1374H19.1374V6.98056C19.1374 6.62918 19.4135 6.3531 19.7649 6.3531C20.1162 6.3531 20.3923 6.62918 20.3923 6.98056V18.1743C18.1711 19.1406 16.6276 21.3492 16.6276 23.9217H19.1374C19.1374 21.8386 20.819 20.157 22.9021 20.157V14.51C22.9021 14.1586 23.1782 13.8825 23.5296 13.8825C23.8809 13.8825 24.157 14.1586 24.157 14.51V20.7845Z" fill="currentColor"/>
</svg>
