<svg width="24" height="24" viewBox="0 0 24 24" fill="none" xmlns="http://www.w3.org/2000/svg">
<path d="M21 15V12C21 7.02944 16.9706 3 12 3C7.02944 3 3 7.02944 3 12V15" stroke="#A8A8A8" stroke-width="2" stroke-linecap="round"/>
<path d="M3 15H6C6.55228 15 7 15.4477 7 16V19C7 20.1046 6.10457 21 5 21V21C3.89543 21 3 20.1046 3 19V15Z" stroke="#A8A8A8" stroke-width="2" stroke-linecap="round"/>
<path d="M17 16C17 15.4477 17.4477 15 18 15H21V19C21 20.1046 20.1046 21 19 21V21C17.8954 21 17 20.1046 17 19V16Z" stroke="#A8A8A8" stroke-width="2" stroke-linecap="round"/>
</svg>
