<svg width="28" height="28" viewBox="0 0 32 32" fill="none" xmlns="http://www.w3.org/2000/svg">
<path fill-rule="evenodd" clip-rule="evenodd" d="M10.6665 7.99984C10.6665 5.05432 13.0543 2.6665 15.9998 2.6665C18.9454 2.6665 21.3332 5.05432 21.3332 7.99984V14.6665C21.3332 17.612 18.9454 19.9998 15.9998 19.9998C13.0543 19.9998 10.6665 17.612 10.6665 14.6665V7.99984ZM15.9998 17.3332C17.4726 17.3332 18.6665 16.1393 18.6665 14.6665V7.99984C18.6665 6.52708 17.4726 5.33317 15.9998 5.33317C14.5271 5.33317 13.3332 6.52708 13.3332 7.99984V14.6665C13.3332 16.1393 14.5271 17.3332 15.9998 17.3332Z" fill="currentColor"/>
<path fill-rule="evenodd" clip-rule="evenodd" d="M6.66683 13.3335C7.40321 13.3335 8.00016 13.9304 8.00016 14.6668C8.00016 19.0851 11.5819 22.6668 16.0002 22.6668C20.4184 22.6668 24.0002 19.0851 24.0002 14.6668C24.0002 13.9304 24.5971 13.3335 25.3335 13.3335C26.0699 13.3335 26.6668 13.9304 26.6668 14.6668C26.6668 20.5579 21.8912 25.3335 16.0002 25.3335C10.1091 25.3335 5.3335 20.5579 5.3335 14.6668C5.3335 13.9304 5.93045 13.3335 6.66683 13.3335Z" fill="currentColor"/>
<path fill-rule="evenodd" clip-rule="evenodd" d="M15.9998 22.6665C16.7362 22.6665 17.3332 23.2635 17.3332 23.9998V27.9998C17.3332 28.7362 16.7362 29.3332 15.9998 29.3332C15.2635 29.3332 14.6665 28.7362 14.6665 27.9998V23.9998C14.6665 23.2635 15.2635 22.6665 15.9998 22.6665Z" fill="currentColor"/>
</svg>
