<svg width="48" height="48" viewBox="0 0 48 48" fill="none" xmlns="http://www.w3.org/2000/svg">
<path fill-rule="evenodd" clip-rule="evenodd" d="M14.1886 11.3602L36.6398 33.8114C38.7471 31.1012 40 27.6983 40 24C40 15.1634 32.8366 8 24 8C20.3017 8 16.8988 9.25288 14.1886 11.3602ZM33.8114 36.6398L11.3602 14.1886C9.25288 16.8988 8 20.3017 8 24C8 32.8366 15.1634 40 24 40C27.6983 40 31.1012 38.7471 33.8114 36.6398ZM9.85786 9.85786C13.475 6.24077 18.4777 4 24 4C35.0457 4 44 12.9543 44 24C44 29.5223 41.7592 34.525 38.1421 38.1421C34.525 41.7592 29.5223 44 24 44C12.9543 44 4 35.0457 4 24C4 18.4777 6.24077 13.475 9.85786 9.85786Z" fill="#A8A8A8"/>
</svg>
