<svg width="32" height="32" viewBox="0 0 32 32" fill="none" xmlns="http://www.w3.org/2000/svg">
	<path fill-rule="evenodd" clip-rule="evenodd"
		d="M16 14.6667C15.2636 14.6667 14.6667 15.2636 14.6667 16C14.6667 16.7364 15.2636 17.3333 16 17.3333C16.7364 17.3333 17.3333 16.7364 17.3333 16C17.3333 15.2636 16.7364 14.6667 16 14.6667ZM12 16C12 13.7909 13.7909 12 16 12C18.2091 12 20 13.7909 20 16C20 18.2091 18.2091 20 16 20C13.7909 20 12 18.2091 12 16Z"
		fill="currentColor" />
	<path fill-rule="evenodd" clip-rule="evenodd"
		d="M7.516 5.63062C8.03678 6.15124 8.03691 6.99546 7.51629 7.51623C5.26663 9.76657 4.00285 12.8183 4.00285 16.0002C4.00285 19.1822 5.26663 22.2339 7.51629 24.4842C8.03691 25.005 8.03678 25.8492 7.516 26.3699C6.99522 26.8905 6.151 26.8903 5.63038 26.3696C2.88081 23.6192 1.33618 19.8893 1.33618 16.0002C1.33618 12.1112 2.88081 8.38131 5.63038 5.6309C6.151 5.11012 6.99522 5.11 7.516 5.63062ZM24.484 5.63062C25.0048 5.11 25.849 5.11012 26.3696 5.6309C29.1192 8.38131 30.6638 12.1112 30.6638 16.0002C30.6638 19.8893 29.1192 23.6192 26.3696 26.3696C25.849 26.8903 25.0048 26.8905 24.484 26.3699C23.9632 25.8492 23.9631 25.005 24.4837 24.4842C26.7334 22.2339 27.9972 19.1822 27.9972 16.0002C27.9972 12.8183 26.7334 9.76657 24.4837 7.51623C23.9631 6.99546 23.9632 6.15124 24.484 5.63062ZM11.29 9.39128C11.8104 9.91227 11.8099 10.7565 11.289 11.2769C10.6691 11.8961 10.1774 12.6313 9.84189 13.4406C9.50639 14.25 9.33371 15.1175 9.33371 15.9936C9.33371 16.8697 9.50639 17.7372 9.84189 18.5465C10.1774 19.3558 10.6691 20.0911 11.289 20.7102C11.8099 21.2306 11.8104 22.0749 11.29 22.5958C10.7696 23.1168 9.92537 23.1173 9.40438 22.5969C8.5366 21.7301 7.84819 20.7007 7.37849 19.5677C6.9088 18.4346 6.66704 17.2201 6.66704 15.9936C6.66704 14.767 6.9088 13.5525 7.37849 12.4195C7.84819 11.2864 8.5366 10.257 9.40438 9.39023C9.92537 8.86982 10.7696 8.87029 11.29 9.39128ZM20.71 9.40462C21.2304 8.88363 22.0746 8.88316 22.5956 9.40357C23.4634 10.2704 24.1518 11.2997 24.6215 12.4328C25.0912 13.5658 25.333 14.7804 25.333 16.0069C25.333 17.2334 25.0912 18.448 24.6215 19.581C24.1518 20.7141 23.4634 21.7434 22.5956 22.6102C22.0746 23.1306 21.2304 23.1302 20.71 22.6092C20.1896 22.0882 20.1901 21.244 20.7111 20.7236C21.3309 20.1044 21.8226 19.3692 22.1581 18.5598C22.4936 17.7505 22.6663 16.883 22.6663 16.0069C22.6663 15.1308 22.4936 14.2633 22.1581 13.454C21.8226 12.6446 21.3309 11.9094 20.7111 11.2902C20.1901 10.7698 20.1896 9.92561 20.71 9.40462Z"
		fill="currentColor" />
	<path fill-rule="evenodd" clip-rule="evenodd"
		d="M4.94289 3.05654C4.42219 2.53584 3.57797 2.53584 3.05727 3.05654C2.53657 3.57724 2.53657 4.42146 3.05727 4.94216L25.7239 27.6088C26.2446 28.1295 27.0889 28.1295 27.6096 27.6088C28.1303 27.0881 28.1303 26.2439 27.6096 25.7232L4.94289 3.05654ZM16.0001 14.666C15.2637 14.666 14.6667 15.263 14.6667 15.9993C14.6667 16.7357 15.2637 17.3327 16.0001 17.3327C16.7365 17.3327 17.3334 16.7357 17.3334 15.9993C17.3334 15.263 16.7365 14.666 16.0001 14.666Z"
		fill="currentColor" />
</svg>
