<svg width="28" height="28" viewBox="0 0 32 32" fill="none" xmlns="http://www.w3.org/2000/svg">
<path fill-rule="evenodd" clip-rule="evenodd" d="M26.1719 9.49322C25.5994 9.95643 24.7599 9.86789 24.2966 9.29545C22.339 6.87618 19.3501 5.33317 15.9998 5.33317C10.1088 5.33317 5.33313 10.1088 5.33313 15.9998C5.33313 16.7362 4.73617 17.3332 3.99979 17.3332C3.26341 17.3332 2.66646 16.7362 2.66646 15.9998C2.66646 8.63604 8.63599 2.6665 15.9998 2.6665C20.1889 2.6665 23.9274 4.59993 26.3696 7.618C26.8328 8.19043 26.7443 9.03 26.1719 9.49322Z" fill="currentColor"/>
<path fill-rule="evenodd" clip-rule="evenodd" d="M26.0002 2.6665C26.7365 2.6665 27.3335 3.26346 27.3335 3.99984L27.3335 9.33317C27.3335 10.0696 26.7365 10.6665 26.0002 10.6665L20.6668 10.6665C19.9304 10.6665 19.3335 10.0696 19.3335 9.33317C19.3335 8.59679 19.9304 7.99984 20.6668 7.99984L24.6668 7.99984L24.6668 3.99984C24.6668 3.26346 25.2638 2.6665 26.0002 2.6665Z" fill="currentColor"/>
<path fill-rule="evenodd" clip-rule="evenodd" d="M5.82815 22.5063C6.40059 22.0431 7.24015 22.1316 7.70337 22.7041C9.66103 25.1233 12.6499 26.6663 16.0002 26.6663C21.8912 26.6663 26.6669 21.8907 26.6669 15.9997C26.6669 15.2633 27.2638 14.6663 28.0002 14.6663C28.7366 14.6663 29.3335 15.2633 29.3335 15.9997C29.3335 23.3635 23.364 29.333 16.0002 29.333C11.8111 29.333 8.0726 27.3996 5.63038 24.3815C5.16717 23.8091 5.25571 22.9695 5.82815 22.5063Z" fill="currentColor"/>
<path fill-rule="evenodd" clip-rule="evenodd" d="M5.99984 29.333C5.26346 29.333 4.6665 28.7361 4.6665 27.9997L4.6665 22.6663C4.6665 21.93 5.26346 21.333 5.99984 21.333L11.3332 21.333C12.0696 21.333 12.6665 21.93 12.6665 22.6663C12.6665 23.4027 12.0695 23.9997 11.3332 23.9997L7.33317 23.9997L7.33317 27.9997C7.33317 28.7361 6.73622 29.333 5.99984 29.333Z" fill="currentColor"/>
</svg>
