<svg width="32" height="32" viewBox="0 0 32 32" fill="none" xmlns="http://www.w3.org/2000/svg">
<g clip-path="url(#clip0_5369_10115)">
<circle cx="16" cy="15.9997" r="2.66667" stroke="currentColor" stroke-width="2"/>
<path fill-rule="evenodd" clip-rule="evenodd" d="M11.9999 4.29717C11.9999 3.67508 12.4301 3.13566 13.0366 2.99725C15.0129 2.54625 17.039 2.56138 18.9633 3.00046C19.5698 3.13885 20.0001 3.67828 20.0001 4.30038L20.0001 6.7627C20.0001 7.7891 21.1112 8.4306 22.0001 7.9174L24.1348 6.68492C24.674 6.37357 25.357 6.47695 25.78 6.93396C26.4443 7.65176 27.0388 8.45341 27.547 9.33371C28.0552 10.214 28.4523 11.1296 28.7417 12.0638C28.926 12.6586 28.6741 13.3018 28.1348 13.6131L26 14.8456C25.1111 15.3588 25.1111 16.6418 26 17.155L28.1325 18.3862C28.6713 18.6973 28.9233 19.3396 28.7399 19.934C28.158 21.8201 27.1581 23.5823 25.7794 25.0683C25.3562 25.5243 24.674 25.6272 24.1353 25.3161L22.0001 24.0834C21.1112 23.5702 20.0001 24.2117 20.0001 25.2381L20.0001 27.7036C20.0001 28.3257 19.5699 28.8651 18.9634 29.0035C16.9871 29.4545 14.961 29.4394 13.0367 29.0003C12.4301 28.8619 11.9999 28.3225 11.9999 27.7004L11.9999 25.238C11.9999 24.2116 10.8888 23.5701 9.99993 24.0833L7.8652 25.3158C7.32592 25.6271 6.64295 25.5237 6.21998 25.0667C5.55567 24.349 4.96123 23.5473 4.453 22.667C3.94476 21.7867 3.54774 20.8711 3.25827 19.9369C3.07398 19.3421 3.32593 18.6989 3.86521 18.3876L5.9999 17.1551C6.88879 16.6419 6.88879 15.3589 5.9999 14.8457L3.86749 13.6145C3.32873 13.3035 3.07667 12.6612 3.26008 12.0667C3.842 10.1807 4.84194 8.41847 6.22065 6.93246C6.64377 6.47642 7.32601 6.37357 7.86476 6.68462L9.99993 7.91736C10.8888 8.43056 11.9999 7.78906 11.9999 6.76267L11.9999 4.29717ZM14.6666 5.41425L14.6666 6.76267C14.6666 9.84187 11.3333 11.7664 8.6666 10.2268L7.49885 9.55256C6.95662 10.2682 6.51089 11.0455 6.16759 11.8633L7.33323 12.5363C9.9999 14.0759 9.9999 17.9249 7.33323 19.4645L6.16707 20.1378C6.33819 20.5429 6.53639 20.9422 6.7624 21.3337C6.9884 21.7251 7.23516 22.0965 7.5004 22.4472L8.6666 21.7739C11.3333 20.2343 14.6666 22.1588 14.6666 25.238L14.6666 26.584C15.5465 26.6956 16.4425 26.6983 17.3334 26.5865L17.3334 25.2381C17.3334 22.1589 20.6667 20.2344 23.3334 21.774L24.5012 22.4482C25.0434 21.7326 25.4891 20.9553 25.8324 20.1375L24.6667 19.4644C22 17.9248 22 14.0758 24.6667 12.5362L25.8329 11.8629C25.6618 11.4578 25.4636 11.0585 25.2376 10.667C25.0116 10.2756 24.7648 9.90425 24.4996 9.5535L23.3334 10.2268C20.6667 11.7664 17.3334 9.8419 17.3334 6.7627L17.3334 5.41672C16.4535 5.30511 15.5575 5.30248 14.6666 5.41425Z" fill="currentColor"/>
</g>
<defs>
<clipPath id="clip0_5369_10115">
<rect width="32" height="32" fill="white"/>
</clipPath>
</defs>
</svg>
