<svg width="28" height="28" viewBox="0 0 32 32" fill="none" xmlns="http://www.w3.org/2000/svg">
<path fill-rule="evenodd" clip-rule="evenodd" d="M16.0002 22.667C15.2638 22.667 14.6668 22.07 14.6668 21.3337L14.6668 20.0003C14.6668 19.2639 15.2638 18.667 16.0002 18.667C16.7365 18.667 17.3335 19.2639 17.3335 20.0003L17.3335 21.3337C17.3335 22.07 16.7365 22.667 16.0002 22.667ZM16.0002 16.0003C15.2638 16.0003 14.6668 15.4034 14.6668 14.667L14.6668 5.88594L12.943 7.6098C12.4223 8.1305 11.5781 8.1305 11.0574 7.6098C10.5367 7.0891 10.5367 6.24488 11.0574 5.72418L15.0574 1.72418C15.5781 1.20348 16.4223 1.20348 16.943 1.72418L20.943 5.72418C21.4637 6.24488 21.4637 7.0891 20.943 7.6098C20.4223 8.1305 19.5781 8.1305 19.0574 7.6098L17.3335 5.88594L17.3335 14.667C17.3335 15.4034 16.7365 16.0003 16.0002 16.0003Z" fill="currentColor"/>
<path fill-rule="evenodd" clip-rule="evenodd" d="M4 12.0003C4 11.2639 4.59695 10.667 5.33333 10.667H7.33333C8.06971 10.667 8.66667 11.2639 8.66667 12.0003C8.66667 12.7367 8.06971 13.3337 7.33333 13.3337H6.66667V24.0003C6.66667 24.7367 7.26362 25.3337 8 25.3337H23.3333C24.0697 25.3337 24.6667 25.9306 24.6667 26.667C24.6667 27.4034 24.0697 28.0003 23.3333 28.0003H8C5.79086 28.0003 4 26.2095 4 24.0003V12.0003ZM22.6667 12.0003C22.6667 11.2639 23.2636 10.667 24 10.667H26.6667C27.403 10.667 28 11.2639 28 12.0003V20.667C28 21.4034 27.403 22.0003 26.6667 22.0003C25.9303 22.0003 25.3333 21.4034 25.3333 20.667V13.3337H24C23.2636 13.3337 22.6667 12.7367 22.6667 12.0003Z" fill="currentColor"/>
<path fill-rule="evenodd" clip-rule="evenodd" d="M4.3624 4.41952C4.86709 3.88329 5.71093 3.85772 6.24716 4.3624L28.9138 25.6957C29.4501 26.2004 29.4756 27.0443 28.9709 27.5805C28.4663 28.1167 27.6224 28.1423 27.0862 27.6376L4.41952 6.30427C3.88329 5.79958 3.85772 4.95575 4.3624 4.41952Z" fill="currentColor"/>
</svg>
