<svg width="28" height="28" viewBox="0 0 32 32" fill="none" xmlns="http://www.w3.org/2000/svg">
<path fill-rule="evenodd" clip-rule="evenodd" d="M16.0002 20C15.2638 20 14.6668 19.403 14.6668 18.6667L14.6668 5.88561L12.943 7.60947C12.4223 8.13017 11.5781 8.13017 11.0574 7.60947C10.5367 7.08877 10.5367 6.24455 11.0574 5.72385L15.0574 1.72386C15.5781 1.20316 16.4223 1.20316 16.943 1.72386L20.943 5.72386C21.4637 6.24456 21.4637 7.08878 20.943 7.60948C20.4223 8.13017 19.5781 8.13017 19.0574 7.60947L17.3335 5.88562L17.3335 18.6667C17.3335 19.403 16.7365 20 16.0002 20Z" fill="currentColor"/>
<path fill-rule="evenodd" clip-rule="evenodd" d="M4 11.9998C4 11.2635 4.59695 10.6665 5.33333 10.6665H8C8.73638 10.6665 9.33333 11.2635 9.33333 11.9998C9.33333 12.7362 8.73638 13.3332 8 13.3332H6.66667V23.9998C6.66667 24.7362 7.26362 25.3332 8 25.3332H24C24.7364 25.3332 25.3333 24.7362 25.3333 23.9998V13.3332H24C23.2636 13.3332 22.6667 12.7362 22.6667 11.9998C22.6667 11.2635 23.2636 10.6665 24 10.6665H26.6667C27.403 10.6665 28 11.2635 28 11.9998V23.9998C28 26.209 26.2091 27.9998 24 27.9998H8C5.79086 27.9998 4 26.209 4 23.9998V11.9998Z" fill="currentColor"/>
</svg>
