<svg width="25" height="25" viewBox="0 0 32 32" fill="none" xmlns="http://www.w3.org/2000/svg">
	<path
		fill="currentColor" fill-rule="evenodd" clip-rule="evenodd"
		d="M20.9663 5.35342C20.4108 5.30392 19.848 5.3288 19.293 5.42991C18.0444 5.65741 16.8947 6.26005 15.9973 7.1575C15.0998 8.05495 14.4972 9.2046 14.2697 10.4532C14.0422 11.7019 14.2006 12.9902 14.7239 14.1465C14.9527 14.6521 14.8444 15.2466 14.4519 15.639L5.7258 24.3651C5.47347 24.6175 5.33171 24.9597 5.33171 25.3166C5.33171 25.6734 5.47347 26.0157 5.7258 26.268C5.97814 26.5203 6.32038 26.6621 6.67724 26.6621C7.03409 26.6621 7.37633 26.5203 7.62867 26.268L16.3548 17.5419C16.7472 17.1494 17.3417 17.0411 17.8473 17.2699C19.0036 17.7932 20.2919 17.9516 21.5406 17.7241C22.7892 17.4966 23.9389 16.894 24.8363 15.9965C25.7338 15.0991 26.3364 13.9494 26.5639 12.7008C26.665 12.1458 26.6899 11.5831 26.6404 11.0275L23.497 14.1709C23.0117 14.6466 22.3592 14.913 21.6796 14.913C21.0001 14.913 20.3476 14.6466 19.8623 14.1709L19.8528 14.1615L17.8229 12.1315C17.3472 11.6462 17.0808 10.9937 17.0808 10.3142C17.0808 9.63463 17.3473 8.98217 17.8229 8.49687L17.8323 8.48735L20.9663 5.35342ZM18.815 2.80643C20.597 2.48176 22.4355 2.70786 24.0857 3.45459C24.4845 3.63505 24.7693 3.99973 24.8477 4.43034C24.9262 4.86095 24.7883 5.30265 24.4788 5.61215L19.7768 10.3142L21.6796 12.2171L26.3817 7.51502C26.6912 7.20552 27.1329 7.06763 27.5635 7.14609C27.9941 7.22455 28.3588 7.50936 28.5392 7.90813C29.286 9.5583 29.5121 11.3969 29.1874 13.1788C28.8627 14.9607 28.0027 16.6014 26.7219 17.8821C25.4412 19.1629 23.8005 20.0229 22.0186 20.3476C20.547 20.6157 19.0367 20.5082 17.6259 20.042L9.51429 28.1536C8.76185 28.9061 7.74134 29.3288 6.67724 29.3288C5.61313 29.3288 4.59262 28.9061 3.84018 28.1536C3.08775 27.4012 2.66504 26.3807 2.66504 25.3166C2.66504 24.2525 3.08775 23.232 3.84018 22.4795L11.9518 14.3679C11.4856 12.9571 11.3781 11.4468 11.6462 9.97523C11.9709 8.19331 12.8309 6.55264 14.1117 5.27188C15.3924 3.99112 17.0331 3.1311 18.815 2.80643Z"
	/>
</svg>
