<svg width="28" height="28" viewBox="0 0 32 32" fill="none" xmlns="http://www.w3.org/2000/svg">
<path fill-rule="evenodd" clip-rule="evenodd" d="M27.605 9.33963C28.3378 9.26688 28.9908 9.80193 29.0636 10.5347C29.2421 12.3326 29.3334 14.1557 29.3334 15.9998C29.3334 17.8438 29.2421 19.667 29.0636 21.4648C28.9908 22.1976 28.3378 22.7327 27.605 22.6599C26.8722 22.5872 26.3372 21.9341 26.4099 21.2014C26.5798 19.4909 26.6668 17.7557 26.6668 15.9998C26.6668 14.2438 26.5798 12.5086 26.4099 10.7982C26.3372 10.0654 26.8722 9.41238 27.605 9.33963Z" fill="currentColor"/>
<path fill-rule="evenodd" clip-rule="evenodd" d="M13.9024 6.73848C15.4369 5.65074 17.6729 6.4499 18.0131 8.40456C18.4427 10.8728 18.6665 13.4108 18.6665 16C18.6665 18.5893 18.4427 21.1273 18.0131 23.5955C17.6729 25.5502 15.4369 26.3493 13.9024 25.2616L10.5883 22.9123C10.3629 22.7525 10.0935 22.6667 9.81721 22.6667H6.6665C4.45736 22.6667 2.6665 20.8758 2.6665 18.6667V13.3334C2.6665 11.1242 4.45736 9.33337 6.6665 9.33337H9.81721C10.0935 9.33337 10.3629 9.24756 10.5883 9.0878L13.9024 6.73848ZM15.4004 8.94532L12.1305 11.2633C11.4543 11.7426 10.646 12 9.81721 12H6.6665C5.93012 12 5.33317 12.597 5.33317 13.3334V18.6667C5.33317 19.4031 5.93012 20 6.6665 20H9.81721C10.646 20 11.4543 20.2575 12.1305 20.7368L15.4004 23.0548C15.7944 20.7631 15.9998 18.4061 15.9998 16C15.9998 13.594 15.7944 11.237 15.4004 8.94532Z" fill="currentColor"/>
<path fill-rule="evenodd" clip-rule="evenodd" d="M22.3927 10.6711C23.1266 10.6105 23.7706 11.1564 23.8312 11.8903C23.943 13.2456 24 14.6163 24 15.9999C24 17.3836 23.943 18.7542 23.8312 20.1095C23.7706 20.8434 23.1266 21.3893 22.3927 21.3287C21.6588 21.2682 21.113 20.6242 21.1735 19.8903C21.2793 18.6078 21.3333 17.3103 21.3333 15.9999C21.3333 14.6895 21.2793 13.392 21.1735 12.1095C21.113 11.3756 21.6588 10.7316 22.3927 10.6711Z" fill="currentColor"/>
</svg>
