<svg width="28" height="28" viewBox="0 0 32 32" fill="none" xmlns="http://www.w3.org/2000/svg">
<path fill-rule="evenodd" clip-rule="evenodd" d="M13.9024 6.73848C15.4369 5.65074 17.6729 6.4499 18.0131 8.40456C18.4427 10.8728 18.6665 13.4108 18.6665 16C18.6665 18.5893 18.4427 21.1273 18.0131 23.5955C17.6729 25.5502 15.4369 26.3493 13.9024 25.2616L10.5883 22.9123C10.3629 22.7525 10.0935 22.6667 9.81721 22.6667H6.6665C4.45736 22.6667 2.6665 20.8758 2.6665 18.6667V13.3334C2.6665 11.1242 4.45736 9.33337 6.6665 9.33337H9.81721C10.0935 9.33337 10.3629 9.24756 10.5883 9.0878L13.9024 6.73848ZM15.4004 8.94532L12.1305 11.2633C11.4543 11.7426 10.646 12 9.81721 12H6.6665C5.93012 12 5.33317 12.597 5.33317 13.3334V18.6667C5.33317 19.4031 5.93012 20 6.6665 20H9.81721C10.646 20 11.4543 20.2575 12.1305 20.7368L15.4004 23.0548C15.7944 20.7631 15.9998 18.4061 15.9998 16C15.9998 13.594 15.7944 11.237 15.4004 8.94532Z" fill="currentColor"/>
<path fill-rule="evenodd" clip-rule="evenodd" d="M21.724 12.3905C22.2447 11.8698 23.0889 11.8698 23.6096 12.3905L25.3335 14.1144L27.0574 12.3905C27.5781 11.8698 28.4223 11.8698 28.943 12.3905C29.4637 12.9112 29.4637 13.7554 28.943 14.2761L27.2191 16L28.943 17.7239C29.4637 18.2446 29.4637 19.0888 28.943 19.6095C28.4223 20.1302 27.5781 20.1302 27.0574 19.6095L25.3335 17.8856L23.6096 19.6095C23.0889 20.1302 22.2447 20.1302 21.724 19.6095C21.2033 19.0888 21.2033 18.2446 21.724 17.7239L23.4479 16L21.724 14.2761C21.2033 13.7554 21.2033 12.9112 21.724 12.3905Z" fill="currentColor"/>
</svg>
