<svg width="18" height="18" viewBox="0 0 18 18" fill="none" xmlns="http://www.w3.org/2000/svg">
<path d="M7.28631 2.01408C8.18474 0.958198 9.8151 0.958199 10.7135 2.01408L10.7609 2.06978C11.2296 2.62055 11.9344 2.91249 12.6552 2.85442L12.7281 2.84855C14.11 2.73722 15.2629 3.89005 15.1515 5.27196L15.1457 5.34486C15.0876 6.0657 15.3795 6.77051 15.9303 7.23916L15.986 7.28655C17.0419 8.18498 17.0419 9.81534 15.986 10.7138L15.9303 10.7612C15.3795 11.2298 15.0876 11.9346 15.1457 12.6555L15.1515 12.7284C15.2629 14.1103 14.11 15.2631 12.7281 15.1518L12.6552 15.1459C12.5614 15.1383 12.4678 15.1367 12.3749 15.1408C11.7548 15.1683 11.1685 15.4515 10.7609 15.9305L10.7135 15.9862C9.8151 17.0421 8.18474 17.0421 7.2863 15.9862L7.23891 15.9305C6.83129 15.4515 6.24501 15.1683 5.62492 15.1408C5.53208 15.1367 5.43848 15.1383 5.34461 15.1459L5.27172 15.1518C3.88981 15.2631 2.73697 14.1103 2.8483 12.7284L2.85418 12.6555C2.91225 11.9346 2.6203 11.2298 2.06953 10.7612L2.01383 10.7138C0.957953 9.81534 0.957954 8.18498 2.01383 7.28655L2.06953 7.23915C2.62031 6.77051 2.91225 6.0657 2.85418 5.34486L2.8483 5.27196C2.73697 3.89005 3.88981 2.73722 5.27172 2.84855L5.34462 2.85442C6.06545 2.91249 6.77027 2.62055 7.23891 2.06978L7.28631 2.01408Z" stroke="#1A1A1A" stroke-width="2"/>
<path d="M11.25 7.875L7.875 11.25L6.75 10.125" stroke="#1A1A1A" stroke-width="2" stroke-linecap="round" stroke-linejoin="round"/>
</svg>
