<svg width="24" height="24" viewBox="0 0 24 24" fill="none" xmlns="http://www.w3.org/2000/svg">
<path d="M2.53692 11.4066C2.92243 12.7886 3.8064 13.7072 4.88737 14.226C4.63924 14.4711 4.43404 14.7442 4.27863 15.0467C3.56105 16.4435 4.13797 17.9304 5.28279 19.1089C6.31427 20.1708 7.33483 20.7781 8.3597 20.8836C9.42505 20.9934 10.2766 20.5412 10.8939 19.9584C11.3589 19.5193 11.7216 18.981 12 18.4714C12.2784 18.981 12.6411 19.5193 13.1061 19.9584C13.7234 20.5412 14.575 20.9934 15.6403 20.8836C16.6652 20.7781 17.6857 20.1708 18.7172 19.1089C19.862 17.9304 20.439 16.4435 19.7214 15.0467C19.566 14.7442 19.3608 14.4711 19.1126 14.226C20.1937 13.7071 21.0777 12.7884 21.4632 11.4062C21.5352 11.1483 21.5969 10.6822 21.6496 10.2221C21.7066 9.72505 21.7643 9.12553 21.8156 8.53474C21.9162 7.37759 22 6.17075 22 5.84222C22 5.02849 21.8252 4.28909 21.3572 3.74612C20.8639 3.17374 20.1962 2.99116 19.5924 3.00033C18.4803 3.01722 17.2926 3.67207 16.4967 4.27133C15.3622 5.12601 14.2276 6.38208 13.2871 7.60914C12.8129 8.22784 12.3749 8.85647 12 9.44615C11.6251 8.85647 11.1871 8.22784 10.7129 7.60914C9.77243 6.38208 8.63804 5.12614 7.50347 4.27146C6.70768 3.67213 5.51984 3.01722 4.40773 3.00033C3.80391 2.99116 3.13617 3.17373 2.64282 3.74608C2.1748 4.28906 2 5.02847 2 5.84222C2 6.17075 2.08381 7.37759 2.18439 8.53474C2.23574 9.12553 2.29336 9.72505 2.35037 10.2221C2.40313 10.6822 2.46494 11.1487 2.53692 11.4066Z" stroke="#1A1A1A" stroke-width="2"/>
</svg>
