<svg width="25" height="24" viewBox="0 0 25 24" fill="none" xmlns="http://www.w3.org/2000/svg">
<path d="M3.03692 11.4066C3.42243 12.7886 4.3064 13.7072 5.38737 14.226C5.13924 14.4711 4.93404 14.7442 4.77863 15.0467C4.06105 16.4435 4.63797 17.9304 5.78279 19.1089C6.81427 20.1708 7.83483 20.7781 8.8597 20.8836C9.92505 20.9934 10.7766 20.5412 11.3939 19.9584C11.8589 19.5193 12.2216 18.981 12.5 18.4714C12.7784 18.981 13.1411 19.5193 13.6061 19.9584C14.2234 20.5412 15.075 20.9934 16.1403 20.8836C17.1652 20.7781 18.1857 20.1708 19.2172 19.1089C20.362 17.9304 20.939 16.4435 20.2214 15.0467C20.066 14.7442 19.8608 14.4711 19.6126 14.226C20.6937 13.7071 21.5777 12.7884 21.9632 11.4062C22.0352 11.1483 22.0969 10.6822 22.1496 10.2221C22.2066 9.72505 22.2643 9.12553 22.3156 8.53474C22.4162 7.37759 22.5 6.17075 22.5 5.84222C22.5 5.02849 22.3252 4.28909 21.8572 3.74612C21.3639 3.17374 20.6962 2.99116 20.0924 3.00033C18.9803 3.01722 17.7926 3.67207 16.9967 4.27133C15.8622 5.12601 14.7276 6.38208 13.7871 7.60914C13.3129 8.22784 12.8749 8.85647 12.5 9.44615C12.1251 8.85647 11.6871 8.22784 11.2129 7.60914C10.2724 6.38208 9.13804 5.12614 8.00347 4.27146C7.20768 3.67213 6.01984 3.01722 4.90773 3.00033C4.30391 2.99116 3.63617 3.17373 3.14282 3.74608C2.6748 4.28906 2.5 5.02847 2.5 5.84222C2.5 6.17075 2.58381 7.37759 2.68439 8.53474C2.73574 9.12553 2.79336 9.72505 2.85037 10.2221C2.90313 10.6822 2.96494 11.1487 3.03692 11.4066Z" stroke="white" stroke-width="2"/>
</svg>
