<svg width="24" height="24" viewBox="0 0 24 24" fill="none" xmlns="http://www.w3.org/2000/svg">
<path d="M7.40231 5H6.40231V6V6.8225H5H3.66181L4.04098 8.10584L4.57945 9.92834L4.79119 10.645H4.99408V16.432C4.77682 16.6493 4.62993 16.9369 4.59051 17.2578C4.28022 17.5172 4.08283 17.9071 4.08283 18.3432V18.8403V19.8403H5.08283H9.72189H10.7219V18.8403V18.3432C10.7219 17.9072 10.5245 17.5172 10.2142 17.2578C10.17 16.8976 9.99033 16.5793 9.72776 16.3554V13.1477L9.73671 13.0483C9.83719 11.9335 10.7756 11.0592 11.9171 11.0592C13.0586 11.0592 13.997 11.9335 14.0975 13.0483L14.1065 13.1477V16.5224C13.9349 16.7263 13.8199 16.9794 13.7857 17.2578C13.4755 17.5172 13.2781 17.9072 13.2781 18.3432V18.8403V19.8403H14.2781H18.9172H19.9172V18.8403V18.3432C19.9172 17.9071 19.7198 17.5172 19.4095 17.2578C19.3701 16.9369 19.2232 16.6493 19.0059 16.432V10.645H19.2088L19.4206 9.92833L19.959 8.10584L20.3382 6.8225H19H17.4319V6V5H16.4319H7.40231Z" stroke="#1A1A1A" stroke-width="2"/>
</svg>
