<svg width="18" height="18" viewBox="0 0 18 18" fill="none" xmlns="http://www.w3.org/2000/svg">
<path d="M7.28704 2.01408C8.18547 0.958198 9.81583 0.958199 10.7143 2.01408L10.7617 2.06978C11.2303 2.62055 11.9351 2.91249 12.656 2.85442L12.7289 2.84855C14.1108 2.73722 15.2636 3.89005 15.1523 5.27196L15.1464 5.34486C15.0883 6.0657 15.3803 6.77051 15.931 7.23916L15.9867 7.28655C17.0426 8.18498 17.0426 9.81534 15.9867 10.7138L15.931 10.7612C15.3803 11.2298 15.0883 11.9346 15.1464 12.6555L15.1523 12.7284C15.2636 14.1103 14.1108 15.2631 12.7288 15.1518L12.656 15.1459C12.5621 15.1383 12.4685 15.1367 12.3757 15.1408C11.7556 15.1683 11.1693 15.4515 10.7617 15.9305L10.7143 15.9862C9.81583 17.0421 8.18547 17.0421 7.28704 15.9862L7.23964 15.9305C6.83203 15.4515 6.24574 15.1683 5.62565 15.1408C5.53281 15.1367 5.43922 15.1383 5.34535 15.1459L5.27245 15.1518C3.89054 15.2631 2.7377 14.1103 2.84904 12.7284L2.85491 12.6555C2.91298 11.9346 2.62104 11.2298 2.07026 10.7612L2.01457 10.7138C0.958686 9.81534 0.958687 8.18498 2.01457 7.28655L2.07027 7.23915C2.62104 6.77051 2.91298 6.0657 2.85491 5.34486L2.84904 5.27196C2.7377 3.89005 3.89054 2.73722 5.27245 2.84855L5.34535 2.85442C6.06619 2.91249 6.771 2.62055 7.23964 2.06978L7.28704 2.01408Z" stroke="#007000" stroke-width="2"/>
<path d="M11.25 7.875L7.875 11.25L6.75 10.125" stroke="#007000" stroke-width="2" stroke-linecap="round" stroke-linejoin="round"/>
</svg>
