<svg width="16" height="17" viewBox="0 0 16 17" fill="none" xmlns="http://www.w3.org/2000/svg">
<path d="M8.5813 10.5466L6.88797 8.87325L6.90797 8.85325C8.06797 7.55992 8.89463 6.07325 9.3813 4.49992H11.3346V3.16659H6.66797V1.83325H5.33464V3.16659H0.667969V4.49325H8.11463C7.66797 5.77992 6.9613 6.99992 6.0013 8.06659C5.3813 7.37992 4.86797 6.62659 4.4613 5.83325H3.12797C3.61464 6.91992 4.2813 7.94659 5.11463 8.87325L1.7213 12.2199L2.66797 13.1666L6.0013 9.83325L8.07463 11.9066L8.5813 10.5466ZM12.3346 7.16659H11.0013L8.0013 15.1666H9.33463L10.0813 13.1666H13.248L14.0013 15.1666H15.3346L12.3346 7.16659ZM10.588 11.8333L11.668 8.94659L12.748 11.8333H10.588Z" fill="#A8A8A8"/>
</svg>
