<svg width="92" height="26" viewBox="0 0 92 26" fill="none" xmlns="http://www.w3.org/2000/svg">
<rect x="1" y="1" width="24" height="24" rx="2" fill="#FFCC00"/>
<path fill-rule="evenodd" clip-rule="evenodd" d="M14.4524 5.04397C14.1722 5.08348 13.6847 5.14981 13.083 5.23028C12.9106 5.25334 12.4496 5.31539 12.0586 5.36814C11.6677 5.42088 11.2491 5.47681 11.1283 5.49242C10.1786 5.61525 9.88118 5.65545 8.89293 5.79477C8.81905 5.80518 8.74751 5.82583 8.73394 5.84066C8.38897 6.21782 8.02926 6.6156 7.89857 6.76448C7.80671 6.86911 7.66491 7.02528 7.58341 7.11152C7.50192 7.19776 7.338 7.3765 7.21912 7.50873C7.01337 7.73761 6.61109 8.17405 6.47671 8.31423C6.44221 8.35021 6.31521 8.4867 6.19447 8.61755C6.07374 8.74842 5.90837 8.92642 5.82699 9.01312C5.7456 9.09984 5.61912 9.23662 5.54595 9.31711C5.47275 9.3976 5.3506 9.52931 5.27446 9.6098C5.10161 9.79256 4.87145 10.0397 4.57425 10.3616C4.44777 10.4986 4.26697 10.6913 4.17248 10.7897C4.07796 10.8881 4.00036 10.9851 4 11.0052C3.99962 11.0254 4.10988 11.1526 4.24498 11.2881C4.47413 11.5179 5.04702 12.117 5.35823 12.4524C5.43297 12.5329 5.56083 12.6695 5.64234 12.7559C5.72388 12.8423 5.85036 12.9788 5.92343 13.0593C5.99649 13.1398 6.0756 13.2249 6.09925 13.2485C6.12287 13.2721 6.20254 13.3568 6.2763 13.4367C6.35006 13.5166 6.50207 13.6807 6.61412 13.8015C6.72618 13.9222 6.957 14.1715 7.12705 14.3555C7.2971 14.5395 7.44201 14.6947 7.44903 14.7004C7.45605 14.7062 7.65803 14.9226 7.89788 15.1813C8.13772 15.44 8.40998 15.732 8.50291 15.8302C8.93792 16.2901 10.4146 17.8808 11.0529 18.5772C11.1576 18.6914 11.2668 18.8095 11.2956 18.8395C11.3243 18.8695 11.4795 19.0391 11.6405 19.2164C11.963 19.5716 12.1668 19.7939 12.3304 19.9688C12.3896 20.032 12.5868 20.2484 12.7688 20.4496C13.1453 20.8661 13.3432 21.0768 13.358 21.0768C13.3636 21.0768 13.4201 20.9663 13.4836 20.8312C13.5471 20.6961 13.6346 20.5102 13.678 20.4183C13.7214 20.3263 13.8201 20.1099 13.8974 19.9374C13.9747 19.7649 14.0833 19.525 14.1387 19.4043C14.1941 19.2836 14.2655 19.1236 14.2974 19.0489C14.3711 18.8763 14.3847 18.8592 14.4391 18.8701C14.5324 18.8889 14.9297 18.9727 15.7277 19.1418C16.543 19.3146 16.7616 19.3606 17.2329 19.4579C17.3651 19.4852 17.5815 19.5305 17.7137 19.5586C19.1695 19.8679 19.8105 20.008 20.0519 20.0695C20.1569 20.0963 20.2077 20.1014 20.2127 20.0858C20.2166 20.0732 20.2384 19.997 20.261 19.9165C20.3259 19.6852 20.514 19.0605 20.6199 18.7249C20.7278 18.3826 20.8078 18.1264 20.8482 17.9932C20.9498 17.658 21.1953 16.8609 21.257 16.6656C21.2951 16.5449 21.3565 16.3358 21.3933 16.2011L21.4604 15.956L21.7247 15.9502L21.989 15.9444L21.9945 15.1795L22 14.4147L21.9368 14.3328C21.8738 14.2511 21.7657 14.1252 21.1737 13.4433C21.0012 13.2446 20.8366 13.0522 20.8078 13.0158C20.7454 12.9365 20.4583 12.5953 20.4059 12.5379C20.357 12.4845 20.3583 12.4769 20.4308 12.3943C20.4879 12.3293 20.5361 12.2364 20.5361 12.1912C20.5361 12.1559 20.4204 12.0633 20.0343 11.7896C19.8216 11.6388 19.5095 11.4159 19.3407 11.2943C19.172 11.1727 18.9149 10.9886 18.7694 10.8851C18.6239 10.7816 18.4374 10.6473 18.3549 10.5866C18.2725 10.5259 18.1815 10.46 18.1528 10.4402C17.8959 10.2631 17.3796 9.86504 17.3794 9.84388C17.3787 9.77383 17.7626 9.36752 18.0242 9.16149L18.1901 9.03082L18.2992 8.57814C18.3592 8.32917 18.4223 8.06902 18.4394 8.00003C18.4566 7.93104 18.4888 7.79933 18.5111 7.70734C18.5334 7.61536 18.5571 7.51894 18.5637 7.49305C18.5728 7.45776 18.5667 7.44602 18.5396 7.44602C18.5197 7.44602 18.4034 7.42189 18.2811 7.39241C18.1588 7.36293 17.927 7.30703 17.766 7.26819C17.0029 7.08409 16.7498 7.02317 16.5953 6.98637C16.2339 6.90039 15.986 6.84264 15.9226 6.82972C15.8527 6.81549 15.8179 6.75327 15.0642 5.29791L14.9099 5L14.8223 5.00209C14.7741 5.00324 14.6076 5.02208 14.4524 5.04397ZM15.877 7.13109C15.9501 7.15333 16.3204 7.24739 16.6998 7.34008C17.0792 7.43276 17.4603 7.52711 17.5465 7.54973C17.6327 7.57237 17.7957 7.61237 17.9087 7.63864L18.1141 7.68641L18.1008 7.78051C18.0816 7.91651 18.0193 8.18306 17.9193 8.55837L17.8317 8.88674L17.7466 8.90714C17.6998 8.91837 17.6212 8.93882 17.5719 8.95259C17.5226 8.96637 17.4784 8.97377 17.4737 8.96905C17.469 8.96432 17.4575 8.87606 17.4483 8.77293L17.4315 8.5854L16.8984 8.59324C16.6052 8.59755 15.9732 8.60695 15.4941 8.61415L14.6229 8.62721L14.616 9.50466L14.6092 10.3821L15.0378 10.4912C15.2735 10.5511 15.7015 10.6594 15.989 10.7318L16.5116 10.8634L17.4512 11.7989C18.3817 12.7254 18.3915 12.7344 18.4651 12.7247C18.5061 12.7193 18.7888 12.7 19.0935 12.6818C19.3983 12.6636 19.7228 12.6414 19.8148 12.6324C19.9068 12.6235 19.9915 12.62 20.003 12.6246C20.0145 12.6291 20.0615 12.6812 20.1075 12.7401C20.1535 12.7991 20.2288 12.8911 20.2747 12.9444C20.3207 12.9978 20.4242 13.1198 20.5047 13.2155C20.5852 13.3112 20.7814 13.541 20.9406 13.7262C21.0999 13.9113 21.2939 14.1381 21.3718 14.2301C21.4497 14.322 21.5381 14.4201 21.5683 14.448L21.6232 14.4987V15.0908V15.683L21.2207 15.683C20.9994 15.6831 19.6346 15.6893 18.1879 15.697L15.5575 15.7109L15.5699 15.5872C15.5768 15.5192 15.6009 15.2048 15.6236 14.8886C15.6953 13.8903 15.7586 13.0631 15.823 12.2825C15.834 12.1496 15.8311 12.1315 15.7972 12.1212C15.7762 12.1148 15.3827 12.0101 14.9228 11.8885C14.4628 11.7669 13.9689 11.636 13.8252 11.5977C13.6815 11.5593 13.4463 11.4972 13.3026 11.4596C13.1588 11.422 13.0294 11.382 13.015 11.3707C12.9942 11.3544 12.9899 10.9584 12.9941 9.46883L12.9994 7.58749L13.7625 7.43512C14.1822 7.35131 14.6808 7.25385 14.8705 7.21854C15.0602 7.18325 15.286 7.14091 15.3723 7.12448C15.5923 7.08256 15.7234 7.08428 15.877 7.13109ZM9.47673 9.5212C10.1661 9.81587 10.3475 9.89203 10.3601 9.89203C10.3671 9.89203 10.4322 9.91864 10.5049 9.9512C10.5776 9.98373 10.677 10.0275 10.7259 10.0485L10.8147 10.0865V10.3342V10.5819H10.1141H9.41347L9.41897 11.3189L9.42447 12.0558L9.64921 12.0618L9.87395 12.0677V11.7638V11.46H10.4593H11.0447V12.2933V13.1267L9.76419 13.1182C9.05993 13.1135 8.47312 13.1062 8.46017 13.1019C8.44725 13.0975 8.43005 13.0486 8.42196 12.993C8.41387 12.9375 8.37448 12.7227 8.33442 12.5157C8.29439 12.3088 8.24442 12.0501 8.22341 11.9408C8.13759 11.4948 8.0071 10.8651 7.92667 10.5088L7.88421 10.3207L8.0247 10.1952C8.10197 10.1262 8.35916 9.90401 8.59623 9.70147C8.94768 9.40122 9.03497 9.33614 9.06907 9.34902C9.09206 9.35771 9.27551 9.43519 9.47673 9.5212Z" fill="#1A1A1A"/>
<rect x="1" y="1" width="24" height="24" rx="2" stroke="#1A1A1A" stroke-width="0.5"/>
<path d="M33.7188 12.3125H37.7031V18.4688C37.1146 18.7031 36.513 18.8776 35.8984 18.9922C35.2891 19.1016 34.6641 19.1562 34.0234 19.1562C33.0859 19.1562 32.2891 18.9271 31.6328 18.4688C30.9818 18.0104 30.4844 17.3411 30.1406 16.4609C29.7969 15.5807 29.625 14.513 29.625 13.2578C29.625 12.0339 29.8203 10.987 30.2109 10.1172C30.6016 9.2474 31.1641 8.58073 31.8984 8.11719C32.6328 7.64844 33.5182 7.41406 34.5547 7.41406C35.1432 7.41406 35.6901 7.48177 36.1953 7.61719C36.7057 7.7526 37.151 7.92448 37.5312 8.13281L36.7734 10.3594C36.4609 10.1615 36.125 10.0104 35.7656 9.90625C35.4115 9.80208 35.0391 9.75 34.6484 9.75C34.1641 9.75 33.7578 9.89062 33.4297 10.1719C33.1068 10.4479 32.862 10.8516 32.6953 11.3828C32.5339 11.9141 32.4531 12.5651 32.4531 13.3359C32.4531 14.0859 32.5182 14.7188 32.6484 15.2344C32.7786 15.75 32.9714 16.1406 33.2266 16.4062C33.487 16.6719 33.8073 16.8047 34.1875 16.8047C34.3281 16.8047 34.4688 16.7943 34.6094 16.7734C34.7552 16.7474 34.8958 16.7161 35.0312 16.6797V14.5859H33.7188V12.3125ZM43.6328 9.99219C43.737 9.99219 43.8438 9.9974 43.9531 10.0078C44.0625 10.0182 44.1979 10.0443 44.3594 10.0859L44.1484 12.875C44.0443 12.8385 43.9271 12.8125 43.7969 12.7969C43.6667 12.7812 43.5182 12.7734 43.3516 12.7734C43.0964 12.7734 42.875 12.8125 42.6875 12.8906C42.5052 12.9688 42.3542 13.0833 42.2344 13.2344C42.1198 13.3802 42.0339 13.5651 41.9766 13.7891C41.9193 14.0078 41.8906 14.263 41.8906 14.5547V19H39.2969V10.1484H41.2812L41.6562 11.5625H41.7812C41.8854 11.3229 42.026 11.0833 42.2031 10.8438C42.3802 10.599 42.5885 10.3958 42.8281 10.2344C43.0729 10.0729 43.3411 9.99219 43.6328 9.99219ZM48.4219 10.0078C49.125 10.0078 49.7266 10.1641 50.2266 10.4766C50.7266 10.7891 51.1068 11.2448 51.3672 11.8438C51.6328 12.4427 51.7656 13.1745 51.7656 14.0391V15.3984H47.5391C47.5391 15.9922 47.6615 16.4245 47.9062 16.6953C48.1562 16.9609 48.5365 17.0938 49.0469 17.0938C49.4531 17.0938 49.8307 17.0417 50.1797 16.9375C50.5286 16.8333 50.9062 16.6562 51.3125 16.4062V18.5234C50.9323 18.7474 50.5234 18.9089 50.0859 19.0078C49.6484 19.1068 49.1745 19.1562 48.6641 19.1562C47.8099 19.1562 47.112 18.9844 46.5703 18.6406C46.0339 18.2917 45.638 17.7786 45.3828 17.1016C45.1276 16.4245 45 15.5964 45 14.6172C45 13.6276 45.1276 12.7917 45.3828 12.1094C45.6432 11.4219 46.026 10.901 46.5312 10.5469C47.0417 10.1875 47.6719 10.0078 48.4219 10.0078ZM48.4844 12.0078C48.2135 12.0078 47.987 12.125 47.8047 12.3594C47.6276 12.5938 47.5391 13 47.5391 13.5781H49.3672C49.3672 13.2031 49.3307 12.901 49.2578 12.6719C49.1849 12.4375 49.0807 12.2682 48.9453 12.1641C48.8151 12.0599 48.6615 12.0078 48.4844 12.0078ZM56.4609 9.99219C57.3411 9.99219 58.0365 10.2552 58.5469 10.7812C59.0625 11.3073 59.3203 12.112 59.3203 13.1953V19H57.4531L57.0156 17.8281H56.9688C56.7812 18.125 56.5807 18.3724 56.3672 18.5703C56.1589 18.7682 55.9193 18.9141 55.6484 19.0078C55.3828 19.1068 55.0651 19.1562 54.6953 19.1562C54.1901 19.1562 53.7839 19.0182 53.4766 18.7422C53.1693 18.4661 52.9453 18.1094 52.8047 17.6719C52.6693 17.2344 52.6016 16.776 52.6016 16.2969C52.6016 15.349 52.8542 14.6406 53.3594 14.1719C53.8698 13.7031 54.6094 13.4505 55.5781 13.4141L56.7344 13.3672V13.1406C56.7344 12.7812 56.6641 12.5104 56.5234 12.3281C56.388 12.1458 56.1745 12.0547 55.8828 12.0547C55.6276 12.0547 55.3438 12.1094 55.0312 12.2188C54.724 12.3229 54.3724 12.487 53.9766 12.7109L53.3047 10.7891C53.737 10.5339 54.2188 10.3385 54.75 10.2031C55.2812 10.0625 55.8516 9.99219 56.4609 9.99219ZM56.7344 15.0469L56.25 15.0781C55.901 15.0938 55.638 15.1953 55.4609 15.3828C55.2839 15.5651 55.1953 15.8333 55.1953 16.1875C55.1953 16.4896 55.2474 16.7161 55.3516 16.8672C55.4557 17.0182 55.612 17.0938 55.8203 17.0938C56.0755 17.0938 56.2917 16.9792 56.4688 16.75C56.6458 16.5156 56.7344 16.2083 56.7344 15.8281V15.0469ZM64.3516 16.9219C64.513 16.9219 64.6875 16.8958 64.875 16.8438C65.0677 16.7865 65.2708 16.7109 65.4844 16.6172V18.6641C65.1979 18.8255 64.8958 18.9479 64.5781 19.0312C64.2656 19.1146 63.9271 19.1562 63.5625 19.1562C62.9844 19.1562 62.5156 19.0469 62.1562 18.8281C61.7969 18.6042 61.5339 18.2656 61.3672 17.8125C61.2005 17.3542 61.1172 16.7786 61.1172 16.0859V12.2812H60.2188V10.9062L61.3438 10.2344L61.9531 8.375H63.7109V10.1484H65.375V12.2812H63.7109V16.0547C63.7109 16.3411 63.763 16.5573 63.8672 16.7031C63.9714 16.849 64.1328 16.9219 64.3516 16.9219ZM72.0547 19L71.625 16.7734H69.1562L68.7266 19H65.7812L68.5625 7.57812H72.1484L74.9688 19H72.0547ZM71.2031 14.4375L70.7422 11.8828C70.6901 11.5964 70.6406 11.3177 70.5938 11.0469C70.5521 10.776 70.513 10.5182 70.4766 10.2734C70.4453 10.0234 70.4167 9.79167 70.3906 9.57812C70.3698 9.78125 70.3411 10.0052 70.3047 10.25C70.2734 10.4948 70.2344 10.7526 70.1875 11.0234C70.1406 11.2891 70.0911 11.5651 70.0391 11.8516L69.5547 14.4375H71.2031ZM80.2188 9.99219C81.0417 9.99219 81.6849 10.4036 82.1484 11.2266C82.612 12.0443 82.8438 13.1693 82.8438 14.6016C82.8438 15.5443 82.7396 16.3568 82.5312 17.0391C82.3229 17.7161 82.026 18.2396 81.6406 18.6094C81.2604 18.974 80.8073 19.1562 80.2812 19.1562C80.0156 19.1562 79.7656 19.112 79.5312 19.0234C79.3021 18.9349 79.0885 18.7969 78.8906 18.6094C78.6979 18.4167 78.5208 18.1693 78.3594 17.8672H78.2812C78.3073 18.263 78.3255 18.6042 78.3359 18.8906C78.3516 19.1719 78.3594 19.3958 78.3594 19.5625V22.8438H75.7656V10.1484H77.8516L78.2344 11.2891H78.3594C78.5573 10.9245 78.7474 10.651 78.9297 10.4688C79.1172 10.2812 79.3125 10.1562 79.5156 10.0938C79.724 10.026 79.9583 9.99219 80.2188 9.99219ZM79.3516 12.1484C79.1172 12.1484 78.9271 12.224 78.7812 12.375C78.6354 12.526 78.5286 12.7656 78.4609 13.0938C78.3932 13.4219 78.3594 13.8542 78.3594 14.3906V14.9062C78.3594 15.375 78.3932 15.7604 78.4609 16.0625C78.5286 16.3594 78.6328 16.5807 78.7734 16.7266C78.9193 16.8672 79.1068 16.9375 79.3359 16.9375C79.5339 16.9375 79.6979 16.8542 79.8281 16.6875C79.9583 16.5156 80.0547 16.2578 80.1172 15.9141C80.1849 15.5703 80.2188 15.1432 80.2188 14.6328C80.2188 13.7943 80.1432 13.1719 79.9922 12.7656C79.8464 12.3542 79.6328 12.1484 79.3516 12.1484ZM87.2969 10.0078C88 10.0078 88.6016 10.1641 89.1016 10.4766C89.6016 10.7891 89.9818 11.2448 90.2422 11.8438C90.5078 12.4427 90.6406 13.1745 90.6406 14.0391V15.3984H86.4141C86.4141 15.9922 86.5365 16.4245 86.7812 16.6953C87.0312 16.9609 87.4115 17.0938 87.9219 17.0938C88.3281 17.0938 88.7057 17.0417 89.0547 16.9375C89.4036 16.8333 89.7812 16.6562 90.1875 16.4062V18.5234C89.8073 18.7474 89.3984 18.9089 88.9609 19.0078C88.5234 19.1068 88.0495 19.1562 87.5391 19.1562C86.6849 19.1562 85.987 18.9844 85.4453 18.6406C84.9089 18.2917 84.513 17.7786 84.2578 17.1016C84.0026 16.4245 83.875 15.5964 83.875 14.6172C83.875 13.6276 84.0026 12.7917 84.2578 12.1094C84.5182 11.4219 84.901 10.901 85.4062 10.5469C85.9167 10.1875 86.5469 10.0078 87.2969 10.0078ZM87.3594 12.0078C87.0885 12.0078 86.862 12.125 86.6797 12.3594C86.5026 12.5938 86.4141 13 86.4141 13.5781H88.2422C88.2422 13.2031 88.2057 12.901 88.1328 12.6719C88.0599 12.4375 87.9557 12.2682 87.8203 12.1641C87.6901 12.0599 87.5365 12.0078 87.3594 12.0078Z" fill="currentColor"/>
</svg>
