<svg width="24" height="25" viewBox="0 0 24 25" fill="none" xmlns="http://www.w3.org/2000/svg">
<path d="M4.17187 10.9594L4.17188 10.9598L4.17282 13.1608V13.1614L4.17188 15.8641V15.8644C4.17188 17.4585 4.77991 18.8494 6.02191 19.822C7.24012 20.776 8.98766 21.2656 11.1702 21.2656H11.2031C12.7922 21.2656 14.0203 21.2657 15.6608 20.7507C16.1739 20.5897 16.5742 20.2626 16.7675 19.7972C16.9541 19.3477 16.904 18.8742 16.7368 18.4866C16.4055 17.7184 15.5423 17.1087 14.4806 17.2523C14.2493 17.2835 14.0075 17.3259 13.7566 17.3767C12.557 17.6197 11.0388 17.5447 9.71382 17.0763C9.63388 17.0481 9.53364 17.0023 9.42316 16.9385C9.18408 16.8006 9.11201 16.5501 9.145 16.3841C9.14899 16.3641 9.15363 16.3493 9.15782 16.3387C9.17411 16.3409 9.19777 16.3459 9.23033 16.3566C10.5336 16.7836 12.0107 16.8396 13.1226 16.8003C13.6862 16.7805 14.1725 16.7354 14.519 16.6952C14.6924 16.675 14.8316 16.656 14.9286 16.6418C14.9771 16.6347 15.0152 16.6288 15.0418 16.6246L15.073 16.6195L15.0768 16.6188C16.007 16.4793 17.1665 15.986 18.1033 15.2373C19.0396 14.489 19.875 13.3823 19.875 11.99V8.41931C19.875 5.80991 17.6247 3.78125 14.9594 3.78125H9.08746C6.4222 3.78125 4.17188 5.80991 4.17188 8.41931L4.17187 10.9594ZM9.17 16.316C9.17002 16.316 9.16975 16.3163 9.16914 16.317L9.17 16.316ZM9.13459 16.3374C9.13056 16.3386 9.12828 16.3387 9.12815 16.3384C9.12802 16.3382 9.13003 16.3376 9.13459 16.3374Z" stroke="#1A1A1A" stroke-width="1.5"/>
<path d="M16.2656 13.1094V9.0422C16.2656 6.51178 12.6928 5.96386 11.9297 8.37726M7.78125 13.1094L7.78125 8.98713C7.78125 6.55541 11.2254 6.04908 11.9297 8.37726M11.9297 8.37726L11.9297 11.404" stroke="#1A1A1A" stroke-width="1.5" stroke-linecap="round" stroke-linejoin="round"/>
</svg>
