<svg width="40" height="40" viewBox="0 0 40 40" fill="none" xmlns="http://www.w3.org/2000/svg">
<path d="M38.6175 8.85563C38.0393 4.5578 34.2934 1.17081 29.8531 0.514502C29.1039 0.403602 26.2655 0 19.6903 0H19.6412C13.0643 0 11.6532 0.403602 10.9041 0.514502C6.58732 1.15263 2.64515 4.19601 1.68869 8.54474C1.22865 10.6864 1.17956 13.0607 1.26502 15.2387C1.38685 18.3621 1.41049 21.48 1.69415 24.5906C1.89025 26.6569 2.23235 28.7067 2.71788 30.7247C3.62705 34.4516 7.30739 37.5532 10.9132 38.8185C14.7737 40.1381 18.9254 40.3572 22.9033 39.4512C23.3409 39.3494 23.7731 39.2313 24.1998 39.0967C25.1671 38.7895 26.3 38.4458 27.1328 37.8423C27.1443 37.8338 27.1536 37.8228 27.1602 37.8103C27.1668 37.7977 27.1705 37.7838 27.171 37.7695V34.7553C27.1708 34.742 27.1676 34.7289 27.1617 34.717C27.1558 34.7051 27.1473 34.6946 27.1369 34.6865C27.1264 34.6783 27.1142 34.6726 27.1012 34.6697C27.0883 34.6668 27.0748 34.6668 27.0619 34.6698C24.5132 35.2785 21.9015 35.5836 19.2812 35.5788C14.7717 35.5788 13.5588 33.439 13.2116 32.5482C12.9324 31.7783 12.7551 30.9751 12.6843 30.1593C12.6835 30.1456 12.686 30.1319 12.6916 30.1193C12.6971 30.1068 12.7055 30.0958 12.7162 30.0871C12.7268 30.0784 12.7393 30.0723 12.7527 30.0694C12.7662 30.0665 12.7801 30.0668 12.7934 30.0702C15.2995 30.6748 17.8686 30.9799 20.4468 30.9792C21.0668 30.9792 21.6851 30.9792 22.3051 30.9628C24.898 30.8901 27.631 30.7574 30.1822 30.2593C30.2458 30.2465 30.3095 30.2356 30.364 30.2193C34.388 29.4466 38.2174 27.0214 38.6066 20.8801C38.6211 20.6383 38.6575 18.3476 38.6575 18.0967C38.6593 17.244 38.9321 12.0481 38.6175 8.85563Z" fill="url(#paint0_linear_7246_37263)"/>
<path d="M32.2429 13.6843V24.3616H28.0116V13.9988C28.0116 11.8172 27.1024 10.7046 25.2532 10.7046C23.2202 10.7046 22.202 12.0208 22.202 14.6206V20.2929H17.9962V14.6206C17.9962 12.0208 16.976 10.7046 14.9431 10.7046C13.1048 10.7046 12.1865 11.8172 12.1865 13.9988V24.3616H7.95703V13.6843C7.95703 11.5026 8.51408 9.76948 9.62811 8.48474C10.7773 7.20301 12.2847 6.54492 14.1558 6.54492C16.3215 6.54492 17.958 7.37754 19.049 9.04104L20.1018 10.8082L21.1564 9.04104C22.2474 7.37754 23.8839 6.54492 26.046 6.54492C27.9152 6.54492 29.4226 7.20301 30.5754 8.48474C31.6883 9.76824 32.2441 11.5015 32.2429 13.6843Z" fill="white"/>
<defs>
<linearGradient id="paint0_linear_7246_37263" x1="19.9997" y1="0" x2="19.9997" y2="40" gradientUnits="userSpaceOnUse">
<stop stop-color="#6364FF"/>
<stop offset="1" stop-color="#563ACC"/>
</linearGradient>
</defs>
</svg>
