<svg width="24" height="25" viewBox="0 0 24 25" fill="none" xmlns="http://www.w3.org/2000/svg">
<path fill-rule="evenodd" clip-rule="evenodd" d="M3.74855 8.7389V17.4028C3.74855 18.112 4.29441 18.687 4.96776 18.687H5.03328C5.70663 18.687 6.25249 18.112 6.25249 17.4028V11.9649L7.12995 13.078V17.4028C7.12995 18.6224 6.19124 19.6111 5.03328 19.6111H4.96776C3.8098 19.6111 2.87109 18.6224 2.87109 17.4028V7.59725C2.87109 6.37762 3.8098 5.38892 4.96776 5.38892H5.03328C5.88213 5.38892 6.61316 5.92022 6.94296 6.68432L6.79435 6.49581C6.24399 5.79769 5.26051 5.70168 4.5977 6.28135L4.37946 6.47222C4.2305 6.55881 4.10058 6.67728 3.99797 6.81888C3.52433 7.33564 3.42881 8.11626 3.74855 8.7389ZM11.5854 13.1027V17.4028C11.5854 18.6224 12.5241 19.6111 13.682 19.6111H13.7476C14.9055 19.6111 15.8442 18.6224 15.8442 17.4028V7.59725C15.8442 6.37762 14.9055 5.38892 13.7476 5.38892H13.682C12.8139 5.38892 12.069 5.94463 11.7505 6.73674L11.9404 6.49581C12.4908 5.79769 13.4743 5.70168 14.1371 6.28135L14.4048 6.51548C14.4904 6.57327 14.5686 6.64201 14.6378 6.71983C15.2064 7.24108 15.3319 8.10647 14.9668 8.77569V17.4028C14.9668 18.112 14.4209 18.687 13.7476 18.687H13.682C13.0087 18.687 12.4628 18.112 12.4628 17.4028V11.9897L11.5854 13.1027Z" fill="black" stroke="black" stroke-width="0.5"/>
<path fill-rule="evenodd" clip-rule="evenodd" d="M9.20966 9.45126C9.23432 9.4826 9.26561 9.50404 9.29935 9.51556C9.37229 9.54048 9.45664 9.51904 9.50996 9.45126L12.0774 6.18742C12.8163 5.24809 14.1367 5.1189 15.0265 5.89887L15.0679 5.93508C15.9577 6.71505 16.0801 8.1088 15.3412 9.04813L11.2833 14.2067C10.0945 15.8897 8.62191 15.8552 7.4122 14.1761L3.39555 9.06994C2.64717 8.11857 2.77113 6.70694 3.67242 5.91697C4.5737 5.12701 5.91102 5.25786 6.65939 6.20923L9.20966 9.45126ZM10.7012 13.4982L10.593 13.6357L10.5794 13.6551C10.0799 14.3621 9.64984 14.5315 9.36575 14.528C9.07251 14.5245 8.62746 14.334 8.11119 13.6174L8.09984 13.6017L4.07122 8.48031C3.63134 7.92111 3.70458 7.09111 4.23368 6.62736C4.76165 6.16461 5.54477 6.24085 5.98372 6.79886L8.53399 10.0409C8.59013 10.1123 8.65252 10.1743 8.71953 10.227L10.6147 12.6345C10.7808 12.8454 10.8279 13.1333 10.7385 13.3907L10.7012 13.4982ZM11.5265 12.449L14.6656 8.4585C15.096 7.91135 15.0243 7.09922 14.5066 6.64547L14.4653 6.60925C13.9487 6.1565 13.1825 6.23109 12.7531 6.77705L10.1856 10.0409C10.1049 10.1435 10.0113 10.2268 9.90959 10.2908L11.2902 12.0446C11.388 12.1688 11.467 12.3051 11.5265 12.449Z" fill="black"/>
<path d="M8.53399 10.0409L5.98372 6.79886C5.54477 6.24085 4.76165 6.16461 4.23368 6.62736C3.70458 7.09111 3.63134 7.92111 4.07122 8.48031L8.09984 13.6017L8.11119 13.6174C8.62746 14.334 9.07251 14.5245 9.36575 14.528C9.64984 14.5315 10.0799 14.3621 10.5794 13.6551L10.593 13.6357L10.7012 13.4982L10.7385 13.3907C10.8279 13.1333 10.7808 12.8454 10.6147 12.6345L8.71953 10.227C8.65252 10.1743 8.59013 10.1123 8.53399 10.0409ZM8.53399 10.0409L8.55714 10.0207M14.5066 6.64547C15.0243 7.09922 15.096 7.91135 14.6656 8.4585L11.5265 12.449C11.467 12.3051 11.388 12.1688 11.2902 12.0446L9.90959 10.2908C10.0113 10.2268 10.1049 10.1435 10.1856 10.0409L12.7531 6.77705C13.1825 6.23109 13.9487 6.1565 14.4653 6.60925L14.5066 6.64547ZM14.5066 6.64547L15.0668 5.9364M8.82907 9.64214L10.9525 12.3395C11.2181 12.677 11.2936 13.1377 11.1506 13.5494L11.0216 13.9208M9.20966 9.45126C9.23432 9.4826 9.26561 9.50404 9.29935 9.51556C9.37229 9.54048 9.45664 9.51904 9.50996 9.45126L12.0774 6.18742C12.8163 5.24809 14.1367 5.1189 15.0265 5.89887L15.0679 5.93508C15.9577 6.71505 16.0801 8.1088 15.3412 9.04813L11.2833 14.2067C10.0945 15.8897 8.62191 15.8552 7.4122 14.1761L3.39555 9.06994C2.64717 8.11857 2.77113 6.70694 3.67242 5.91697C4.5737 5.12701 5.91102 5.25786 6.65939 6.20923L9.20966 9.45126Z" stroke="black" stroke-width="0.5"/>
<path fill-rule="evenodd" clip-rule="evenodd" d="M20.2531 17.6599V11.6527C20.2531 11.0856 19.8166 10.6258 19.2782 10.6258C18.7397 10.6258 18.3032 11.0856 18.3032 11.6527V17.6599C18.3032 18.2271 18.7397 18.6868 19.2782 18.6868C19.8166 18.6868 20.2531 18.2271 20.2531 17.6599ZM19.2782 9.70166C18.2551 9.70166 17.4258 10.5752 17.4258 11.6527V17.6599C17.4258 18.7375 18.2551 19.611 19.2782 19.611C20.3012 19.611 21.1306 18.7375 21.1306 17.6599V11.6527C21.1306 10.5752 20.3012 9.70166 19.2782 9.70166Z" fill="black" stroke="black" stroke-width="0.5"/>
<path fill-rule="evenodd" clip-rule="evenodd" d="M19.3271 8.41812C19.8167 8.41812 20.2533 7.98176 20.2533 7.39125C20.2533 6.80073 19.8167 6.36437 19.3271 6.36437C18.8375 6.36437 18.4009 6.80073 18.4009 7.39125C18.4009 7.98176 18.8375 8.41812 19.3271 8.41812ZM19.3271 9.34231C20.3232 9.34231 21.1308 8.46879 21.1308 7.39125C21.1308 6.31371 20.3232 5.44019 19.3271 5.44019C18.331 5.44019 17.5234 6.31371 17.5234 7.39125C17.5234 8.46879 18.331 9.34231 19.3271 9.34231Z" fill="black" stroke="black" stroke-width="0.5"/>
</svg>
