<svg width="40" height="40" viewBox="0 0 40 40" fill="none" xmlns="http://www.w3.org/2000/svg">
<g clip-path="url(#clip0_7237_17555)">
<path d="M4.88079 5.98193C4.29674 5.98193 3.74056 6.07937 3.21222 6.27425C2.26658 6.60771 1.48786 7.20553 0.876061 8.06771C0.29202 8.90194 0 9.83361 0 10.8627V29.1339C0 30.4687 0.472823 31.6228 1.41847 32.5962C2.39167 33.5419 3.54578 34.0147 4.88079 34.0147C6.24335 34.0147 7.39746 33.5419 8.3431 32.5962C9.31631 31.6226 9.80291 30.4685 9.80291 29.1339V25.8113C9.81324 25.0917 10.5544 25.2804 10.9291 25.8113C11.6309 27.0263 13.1182 28.0701 14.8502 28.0642C16.5823 28.0583 18.0205 27.202 18.7714 25.8113C19.0557 25.4758 19.8574 24.9045 19.9395 25.8113V29.1339C19.9395 30.4687 20.4122 31.6228 21.3576 32.5962C22.3314 33.5419 23.4856 34.0147 24.8203 34.0147C26.183 34.0147 27.3371 33.5419 28.2826 32.5962C29.256 31.6228 29.7427 30.4687 29.7427 29.1339V10.8627C29.7427 9.83381 29.4368 8.90214 28.825 8.06771C28.2411 7.20553 27.4764 6.60761 26.5307 6.27395C25.9745 6.07908 25.4183 5.98174 24.8622 5.98193C23.3603 5.98193 22.0949 6.56597 21.0662 7.73406L16.1128 13.5308C16.0015 13.6143 15.633 14.2521 14.8502 14.2521C14.0675 14.2521 13.7406 13.6143 13.6296 13.5308L8.63512 7.73406C7.63397 6.56597 6.38252 5.98193 4.88079 5.98193ZM35.7452 5.98193C34.5771 5.98193 33.5759 6.39905 32.7417 7.23328C31.9352 8.03995 31.532 9.02723 31.532 10.1951C31.532 11.363 31.9352 12.3642 32.7417 13.1986C33.5759 14.0053 34.5771 14.4086 35.7452 14.4086C36.9133 14.4086 37.9144 14.0053 38.7486 13.1986C39.5831 12.3644 40.0003 11.3632 40.0003 10.1951C40.0003 9.02723 39.5831 8.04005 38.7486 7.23358C37.9144 6.39915 36.9133 5.98193 35.7452 5.98193ZM35.7868 15.2427C34.6187 15.2427 33.6176 15.6598 32.7833 16.4941C31.532 17.7454 31.532 18.3298 31.532 19.4975V29.8012C31.532 30.9693 31.9491 31.9705 32.7833 32.8047C33.6176 33.6114 34.6187 34.0147 35.7868 34.0147C37.5389 34.0147 37.9423 33.6114 38.7486 32.8047C39.5831 31.9705 40.0003 30.9693 40.0003 29.8012V19.4978C40.0003 18.33 39.5831 17.3288 38.7486 16.4944C37.9422 15.6601 36.955 15.243 35.7871 15.243" fill="#94CE23"/>
</g>
<defs>
<clipPath id="clip0_7237_17555">
<rect width="40" height="40" fill="white"/>
</clipPath>
</defs>
</svg>
