<svg width="24" height="25" viewBox="0 0 24 25" fill="none" xmlns="http://www.w3.org/2000/svg">
<path fill-rule="evenodd" clip-rule="evenodd" d="M19.4543 9.80087C21.5152 11.0006 21.5152 13.9994 19.4543 15.1991L7.63806 22.0776C5.5768 23.2775 3 21.778 3 19.3785L3 5.62149C3 3.22203 5.57681 1.72245 7.63807 2.92236L19.4543 9.80087ZM18.9573 14.3316C20.3558 13.5174 20.3558 11.4826 18.9573 10.6684L13.794 7.66277L13.794 17.3372L18.9573 14.3316ZM12.8002 17.3372L12.8002 7.66277L4.49059 12.5L12.8002 17.3372ZM3.99382 11.6323L12.3034 6.79507L7.14108 3.78994C5.74237 2.97571 3.99382 3.99328 3.99382 5.62149L3.99382 11.6323ZM3.99382 13.3677L12.3034 18.2049L7.14108 21.2101C5.74236 22.0243 3.99382 21.0067 3.99382 19.3785V13.3677Z" fill="black" stroke="black" stroke-width="0.5"/>
</svg>
