<svg width="19" height="22" viewBox="0 0 19 22" fill="none" xmlns="http://www.w3.org/2000/svg">
<path fill-rule="evenodd" clip-rule="evenodd" d="M16.9543 8.30087C19.0152 9.50061 19.0152 12.4994 16.9543 13.6991L5.13806 20.5776C3.0768 21.7775 0.5 20.278 0.5 17.8785L0.500002 4.12149C0.500002 1.72203 3.07681 0.222452 5.13807 1.42236L16.9543 8.30087ZM16.4573 12.8316C17.8558 12.0174 17.8558 9.98255 16.4573 9.16845L11.294 6.16277L11.294 15.8372L16.4573 12.8316ZM10.3002 15.8372L10.3002 6.16277L1.99059 11L10.3002 15.8372ZM1.49382 10.1323L9.80343 5.29507L4.64108 2.28994C3.24237 1.47571 1.49382 2.49328 1.49382 4.12149L1.49382 10.1323ZM1.49382 11.8677L9.80343 16.7049L4.64108 19.7101C3.24236 20.5243 1.49382 19.5067 1.49382 17.8785V11.8677Z" fill="white" stroke="white" stroke-width="0.5"/>
</svg>
