<svg width="24" height="25" viewBox="0 0 24 25" fill="none" xmlns="http://www.w3.org/2000/svg">
<path fill-rule="evenodd" clip-rule="evenodd" d="M12 20.595C16.4707 20.595 20.095 16.9707 20.095 12.5C20.095 8.02927 16.4707 4.40503 12 4.40503C7.52927 4.40503 3.90503 8.02927 3.90503 12.5C3.90503 16.9707 7.52927 20.595 12 20.595ZM12 21.5C16.9706 21.5 21 17.4706 21 12.5C21 7.52944 16.9706 3.5 12 3.5C7.02944 3.5 3 7.52944 3 12.5C3 17.4706 7.02944 21.5 12 21.5Z" fill="black" stroke="black" stroke-width="0.5"/>
<path fill-rule="evenodd" clip-rule="evenodd" d="M9.02623 4.06409C9.26254 4.17413 9.49675 4.29489 9.72655 4.42711C11.6608 5.54008 13.2986 7.48278 13.1928 10.6571C13.1872 10.8251 13.1848 10.989 13.1854 11.1486C14.5344 11.3132 15.5164 11.0756 16.2323 10.6268C17.016 10.1355 17.5397 9.35411 17.8638 8.41821C18.1176 7.68556 18.2421 6.87753 18.2761 6.08386C18.5735 6.37248 18.851 6.68153 19.1063 7.00873C19.0328 7.59079 18.9081 8.16847 18.719 8.71443C18.3487 9.78367 17.7198 10.7624 16.7131 11.3936C15.8164 11.9558 14.6661 12.2133 13.2277 12.0641C13.3506 13.348 13.7393 14.3073 14.2781 15.0153C14.8899 15.8193 15.7203 16.3322 16.6565 16.6188C17.686 16.934 18.8303 16.9707 19.9075 16.8226C19.7233 17.1598 19.518 17.4838 19.2935 17.793C18.3221 17.8536 17.3229 17.7693 16.3916 17.4842C15.3066 17.152 14.3034 16.5432 13.5578 15.5634C12.9445 14.7574 12.5223 13.7225 12.358 12.43C11.2523 13.4312 10.1301 15.0133 9.70951 16.7761C9.46011 17.8212 9.45933 18.9196 9.84267 20.0006C10.0057 20.4604 10.2403 20.9228 10.5608 21.381C10.1395 21.3118 9.72802 21.2132 9.32864 21.0875C9.19569 20.8282 9.0831 20.5665 8.98969 20.3031C8.53879 19.0315 8.54614 17.7522 8.8292 16.566C9.30404 14.5761 10.5602 12.8199 11.8033 11.712C10.3836 11.3498 8.41399 11.3105 6.56936 11.8604C5.28109 12.2444 4.07478 12.9081 3.16161 13.9343C3.10116 13.551 3.06498 13.1596 3.05469 12.7618C4.0016 11.9141 5.13783 11.3427 6.3108 10.9931C8.40749 10.368 10.6678 10.434 12.2816 10.9046C12.2829 10.8131 12.2851 10.7206 12.2883 10.6269C12.3807 7.85468 10.9832 6.19433 9.27518 5.21155C8.82065 4.95001 8.34535 4.73769 7.87257 4.56744C8.24269 4.37384 8.628 4.2053 9.02623 4.06409Z" fill="black" stroke="black" stroke-width="0.5" stroke-linecap="round"/>
<path d="M8.63281 9.98601C8.63281 9.09742 9.35316 8.37708 10.2418 8.37708H13.711C15.2105 8.37708 16.4261 9.59266 16.4261 11.0922V11.8849C16.4261 13.3983 15.1993 14.6251 13.6859 14.6251H12.5295H11.8991H11.584H11.4264C11.3255 14.6251 11.2287 14.6652 11.1574 14.7366L11.1184 14.7756L10.9679 14.9261L10.6671 15.227L10.0654 15.8289L9.34911 16.5024L8.99096 16.8392L8.81189 17.0076C8.74405 17.0714 8.63281 17.0233 8.63281 16.9302V13.0631V11.5011V9.98601Z" fill="black"/>
</svg>
