<svg width="40" height="40" viewBox="0 0 40 40" fill="none" xmlns="http://www.w3.org/2000/svg">
<mask id="mask0_7237_17511" style="mask-type:luminance" maskUnits="userSpaceOnUse" x="0" y="0" width="40" height="40">
<path d="M40 0.0898438H0V39.9105H40V0.0898438Z" fill="white"/>
</mask>
<g mask="url(#mask0_7237_17511)">
<path fill-rule="evenodd" clip-rule="evenodd" d="M19.9934 19.9658C16.7405 15.5157 10.52 14.4958 6.09954 17.6878C1.67904 20.8799 0.732467 27.0751 3.98532 31.5253L4.23142 31.862C-1.07325 24.9239 -1.33424 15.1913 3.95401 8.05935L4.04817 7.93422C7.32448 3.58054 13.5499 2.74456 17.9531 6.06699C22.3562 9.38943 23.2697 15.6122 19.9934 19.9658Z" fill="url(#paint0_linear_7237_17511)"/>
<path fill-rule="evenodd" clip-rule="evenodd" d="M19.9919 19.9662C14.8135 21.7177 12.0896 27.344 13.9079 32.533C15.7262 37.722 21.3981 40.5086 26.5765 38.7571L26.9195 38.6411C20.4797 40.9453 12.9772 39.8371 7.30907 35.081C6.14344 34.1029 5.11627 33.0217 4.22991 31.8624L3.98382 31.5257C0.730967 27.0755 1.67754 20.8803 6.09804 17.6882C10.5185 14.4962 16.739 15.5161 19.9919 19.9662Z" fill="url(#paint1_linear_7237_17511)"/>
<path fill-rule="evenodd" clip-rule="evenodd" d="M19.9915 19.9661C20.0248 25.4425 24.5009 29.9091 29.9892 29.9424C35.4774 29.9757 39.8995 25.5632 39.8662 20.0867L39.8655 19.9613C39.9241 24.5046 38.4271 29.0724 35.294 32.8063C32.9872 35.5554 30.0813 37.5095 26.9192 38.6409L26.5761 38.757C21.3978 40.5085 15.7258 37.7218 13.9075 32.5329C12.0892 27.3439 14.8132 21.7175 19.9915 19.9661Z" fill="url(#paint2_linear_7237_17511)"/>
<path fill-rule="evenodd" clip-rule="evenodd" d="M19.9934 19.9659C25.2233 21.6899 30.8121 18.8736 32.4764 13.6754C34.1407 8.47725 31.2502 2.86572 26.0203 1.14171L25.5921 1.00057C28.112 1.76776 30.5261 3.047 32.6762 4.85115C37.3472 8.77063 39.7949 14.3472 39.8673 19.9611L39.8681 20.0865C39.9014 25.563 35.4793 29.9756 29.991 29.9423C24.5028 29.909 20.0267 25.4424 19.9934 19.9659Z" fill="url(#paint3_linear_7237_17511)"/>
<path d="M19.9937 19.9663C23.2701 15.6126 22.3566 9.3899 17.9534 6.06746C13.5503 2.74503 7.32485 3.58101 4.04854 7.93469L3.95438 8.05982C4.18908 7.74328 4.43472 7.43187 4.69133 7.12605C9.91382 0.902129 18.2076 -1.24741 25.5925 1.00094L26.0207 1.14208C31.2506 2.86608 34.1411 8.47761 32.4768 13.6758C30.8125 18.8739 25.2237 21.6903 19.9937 19.9663Z" fill="url(#paint4_linear_7237_17511)"/>
<path style="mix-blend-mode:multiply" d="M19.9937 19.9663C23.2701 15.6126 22.3566 9.3899 17.9534 6.06746C13.5503 2.74503 7.32485 3.58101 4.04854 7.93469L3.95438 8.05982C4.18908 7.74328 4.43472 7.43187 4.69133 7.12605C9.91382 0.902129 18.2076 -1.24741 25.5925 1.00094L26.0207 1.14208C31.2506 2.86608 34.1411 8.47761 32.4768 13.6758C30.8125 18.8739 25.2237 21.6903 19.9937 19.9663Z" fill="url(#paint5_linear_7237_17511)" fill-opacity="0.1"/>
<g opacity="0.504911">
<path d="M25.8673 1.09168L26.0203 1.14211C31.2502 2.86611 34.1407 8.47764 32.4764 13.6758C30.8122 18.874 25.2233 21.6903 19.9934 19.9663C20.4785 19.3217 20.8717 18.6361 21.1754 17.9251C24.2322 18.551 27.5082 17.5411 29.635 15.0065C32.7393 11.3069 32.2195 5.76011 28.4741 2.6173C27.6738 1.94582 26.7911 1.4384 25.8673 1.09168Z" fill="url(#paint6_linear_7237_17511)"/>
<g style="mix-blend-mode:overlay">
<path d="M25.8673 1.09168L26.0203 1.14211C31.2502 2.86611 34.1407 8.47764 32.4764 13.6758C30.8122 18.874 25.2233 21.6903 19.9934 19.9663C20.4785 19.3217 20.8717 18.6361 21.1754 17.9251C24.2322 18.551 27.5082 17.5411 29.635 15.0065C32.7393 11.3069 32.2195 5.76011 28.4741 2.6173C27.6738 1.94582 26.7911 1.4384 25.8673 1.09168Z" fill="black" fill-opacity="0.496179"/>
</g>
</g>
<g opacity="0.544252">
<path d="M39.8406 19.7984L39.8399 19.9594C39.8164 25.4661 35.3728 29.9492 29.9147 29.9727C24.4567 29.9962 20.0511 25.5512 20.0746 20.0445C20.8376 20.3067 21.6111 20.4688 22.3812 20.5379C22.7305 23.6385 24.7034 26.4421 27.7712 27.6816C32.2489 29.4907 37.3636 27.2823 39.1952 22.749C39.5865 21.7804 39.7963 20.784 39.8406 19.7984Z" fill="url(#paint7_linear_7237_17511)"/>
<g style="mix-blend-mode:overlay">
<path d="M39.8406 19.7984L39.8399 19.9594C39.8164 25.4661 35.3728 29.9492 29.9147 29.9727C24.4567 29.9962 20.0511 25.5512 20.0746 20.0445C20.8376 20.3067 21.6111 20.4688 22.3812 20.5379C22.7305 23.6385 24.7034 26.4421 27.7712 27.6816C32.2489 29.4907 37.3636 27.2823 39.1952 22.749C39.5865 21.7804 39.7963 20.784 39.8406 19.7984Z" fill="black" fill-opacity="0.499887"/>
</g>
</g>
<g opacity="0.562221">
<path d="M26.7127 38.6247L26.5602 38.6765C21.3459 40.4471 15.6603 37.7051 13.8611 32.552C12.062 27.399 14.8305 21.7863 20.0448 20.0157C20.0454 20.8224 20.1439 21.6066 20.3293 22.3573C17.5114 23.697 15.5028 26.4752 15.3296 29.7793C15.0768 34.6021 18.8301 38.7192 23.7128 38.9751C24.756 39.0297 25.7663 38.9037 26.7127 38.6247Z" fill="url(#paint8_linear_7237_17511)"/>
<g style="mix-blend-mode:overlay">
<path d="M26.7127 38.6247L26.5602 38.6765C21.3459 40.4471 15.6603 37.7051 13.8611 32.552C12.062 27.399 14.8305 21.7863 20.0448 20.0157C20.0454 20.8224 20.1439 21.6066 20.3293 22.3573C17.5114 23.697 15.5028 26.4752 15.3296 29.7793C15.0768 34.6021 18.8301 38.7192 23.7128 38.9751C24.756 39.0297 25.7663 38.9037 26.7127 38.6247Z" fill="black"/>
</g>
</g>
<g opacity="0.584152">
<path d="M3.88957 31.4587L3.79776 31.3263C0.65849 26.802 1.72712 20.5809 6.18461 17.4311C10.6421 14.2812 16.8005 15.3954 19.9398 19.9197C19.1644 20.1426 18.4378 20.4535 17.7673 20.8386C15.7028 18.4991 12.4786 17.3341 9.25468 18.0784C4.54906 19.1648 1.62602 23.9074 2.72588 28.6715C2.96088 29.6893 3.3605 30.6258 3.88957 31.4587Z" fill="url(#paint9_linear_7237_17511)"/>
<g style="mix-blend-mode:overlay">
<path d="M3.88957 31.4587L3.79776 31.3263C0.65849 26.802 1.72712 20.5809 6.18461 17.4311C10.6421 14.2812 16.8005 15.3954 19.9398 19.9197C19.1644 20.1426 18.4378 20.4535 17.7673 20.8386C15.7028 18.4991 12.4786 17.3341 9.25468 18.0784C4.54906 19.1648 1.62602 23.9074 2.72588 28.6715C2.96088 29.6893 3.3605 30.6258 3.88957 31.4587Z" fill="black" fill-opacity="0.503085"/>
</g>
</g>
<g opacity="0.180134">
<path d="M3.9763 8.19212L4.07377 8.06391C7.40654 3.6802 13.6534 2.7741 18.0265 6.04007C22.3997 9.30604 23.243 15.5073 19.9103 19.891C19.4587 19.2225 18.9385 18.6275 18.365 18.1089C19.9521 15.4224 20.0637 11.996 18.3596 9.1599C15.8723 5.0203 10.4585 3.7059 6.26746 6.2241C5.37203 6.76213 4.60487 7.43158 3.9763 8.19212Z" fill="url(#paint10_linear_7237_17511)"/>
<g style="mix-blend-mode:multiply">
<path d="M3.9763 8.19212L4.07377 8.06391C7.40654 3.6802 13.6534 2.7741 18.0265 6.04007C22.3997 9.30604 23.243 15.5073 19.9103 19.891C19.4587 19.2225 18.9385 18.6275 18.365 18.1089C19.9521 15.4224 20.0637 11.996 18.3596 9.1599C15.8723 5.0203 10.4585 3.7059 6.26746 6.2241C5.37203 6.76213 4.60487 7.43158 3.9763 8.19212Z" fill="black" fill-opacity="0.772843"/>
</g>
</g>
<g filter="url(#filter0_d_7237_17511)">
<path d="M18.426 24.2179H22.0619C25.487 24.2179 28.2636 21.527 28.2636 18.2076C28.2636 14.8882 25.487 12.1973 22.0619 12.1973H16.8143C14.8382 12.1973 13.2363 13.7497 13.2363 15.6648V29.1607L18.426 24.2179Z" fill="black"/>
</g>
<path d="M18.426 24.2179H22.0619C25.487 24.2179 28.2636 21.527 28.2636 18.2076C28.2636 14.8882 25.487 12.1973 22.0619 12.1973H16.8143C14.8382 12.1973 13.2363 13.7497 13.2363 15.6648V29.1607L18.426 24.2179Z" fill="white"/>
</g>
<defs>
<filter id="filter0_d_7237_17511" x="10.2363" y="10.1973" width="21.0273" height="22.9634" filterUnits="userSpaceOnUse" color-interpolation-filters="sRGB">
<feFlood flood-opacity="0" result="BackgroundImageFix"/>
<feColorMatrix in="SourceAlpha" type="matrix" values="0 0 0 0 0 0 0 0 0 0 0 0 0 0 0 0 0 0 127 0" result="hardAlpha"/>
<feOffset dy="1"/>
<feGaussianBlur stdDeviation="1.5"/>
<feColorMatrix type="matrix" values="0 0 0 0 0 0 0 0 0 0 0 0 0 0 0 0 0 0 0.298687 0"/>
<feBlend mode="normal" in2="BackgroundImageFix" result="effect1_dropShadow_7237_17511"/>
<feBlend mode="normal" in="SourceGraphic" in2="effect1_dropShadow_7237_17511" result="shape"/>
</filter>
<linearGradient id="paint0_linear_7237_17511" x1="514.202" y1="2505.54" x2="-1055.12" y2="1267.22" gradientUnits="userSpaceOnUse">
<stop stop-color="#FF5C34"/>
<stop offset="1" stop-color="#EB0256"/>
</linearGradient>
<linearGradient id="paint1_linear_7237_17511" x1="-523.316" y1="2177.94" x2="1070.55" y2="1100.56" gradientUnits="userSpaceOnUse">
<stop stop-color="#A63FDB"/>
<stop offset="1" stop-color="#FF257E"/>
</linearGradient>
<linearGradient id="paint2_linear_7237_17511" x1="-622.606" y1="1273.8" x2="517.599" y2="2615.76" gradientUnits="userSpaceOnUse">
<stop stop-color="#00FFF0"/>
<stop offset="1" stop-color="#0087FF"/>
</linearGradient>
<linearGradient id="paint3_linear_7237_17511" x1="1466.19" y1="1511.68" x2="-646.388" y2="1866.5" gradientUnits="userSpaceOnUse">
<stop stop-color="#17C934"/>
<stop offset="1" stop-color="#03FF6E"/>
</linearGradient>
<linearGradient id="paint4_linear_7237_17511" x1="-432.029" y1="2567.53" x2="804.304" y2="617.695" gradientUnits="userSpaceOnUse">
<stop stop-color="#FFB000"/>
<stop offset="1" stop-color="#FF7725"/>
</linearGradient>
<linearGradient id="paint5_linear_7237_17511" x1="-432.029" y1="2567.53" x2="804.304" y2="617.695" gradientUnits="userSpaceOnUse">
<stop stop-color="#FFB000"/>
<stop offset="1" stop-color="#FF7725"/>
</linearGradient>
<linearGradient id="paint6_linear_7237_17511" x1="-809.812" y1="2076.82" x2="145.658" y2="170.11" gradientUnits="userSpaceOnUse">
<stop stop-color="#FFB000"/>
<stop offset="1" stop-color="#FF7725"/>
</linearGradient>
<linearGradient id="paint7_linear_7237_17511" x1="-587.519" y1="-1451.86" x2="-1760.92" y2="1115.43" gradientUnits="userSpaceOnUse">
<stop stop-color="#9EE85D"/>
<stop offset="1" stop-color="#0ED061"/>
</linearGradient>
<linearGradient id="paint8_linear_7237_17511" x1="-487.968" y1="-2211.94" x2="471.155" y2="-86.2944" gradientUnits="userSpaceOnUse">
<stop stop-color="#21EFE3"/>
<stop offset="1" stop-color="#2598FF"/>
</linearGradient>
<linearGradient id="paint9_linear_7237_17511" x1="769.299" y1="-1569.94" x2="1523.12" y2="967.007" gradientUnits="userSpaceOnUse">
<stop stop-color="#A63FDB"/>
<stop offset="1" stop-color="#FF257E"/>
</linearGradient>
<linearGradient id="paint10_linear_7237_17511" x1="1740.02" y1="202.168" x2="571.609" y2="955.229" gradientUnits="userSpaceOnUse">
<stop stop-color="#FF5C34"/>
<stop offset="1" stop-color="#EB0256"/>
</linearGradient>
</defs>
</svg>
