<svg width="24" height="24" viewBox="0 0 24 24" fill="none" xmlns="http://www.w3.org/2000/svg">
<path d="M10.2861 5.01383C11.1845 3.95795 12.8149 3.95795 13.7133 5.01383L13.7607 5.06953C14.2293 5.62031 14.9341 5.91225 15.655 5.85418L15.7279 5.8483C17.1098 5.73697 18.2626 6.88981 18.1513 8.27172L18.1454 8.34462C18.0873 9.06545 18.3793 9.77027 18.9301 10.2389L18.9858 10.2863C20.0416 11.1847 20.0416 12.8151 18.9858 13.7135L18.9301 13.7609C18.3793 14.2296 18.0873 14.9344 18.1454 15.6552L18.1513 15.7281C18.2626 17.11 17.1098 18.2629 15.7279 18.1515L15.655 18.1457C15.5611 18.1381 15.4675 18.1365 15.3747 18.1406C14.7546 18.168 14.1683 18.4513 13.7607 18.9303L13.7133 18.986C12.8149 20.0419 11.1845 20.0419 10.2861 18.986L10.2387 18.9303C9.83105 18.4513 9.24477 18.168 8.62467 18.1406C8.53184 18.1365 8.43824 18.1381 8.34437 18.1457L8.27147 18.1515C6.88957 18.2629 5.73673 17.11 5.84806 15.7281L5.85393 15.6552C5.912 14.9344 5.62006 14.2296 5.06929 13.7609L5.01359 13.7135C3.95771 12.8151 3.95771 11.1847 5.01359 10.2863L5.06929 10.2389C5.62006 9.77027 5.912 9.06545 5.85393 8.34462L5.84806 8.27172C5.73673 6.88981 6.88957 5.73697 8.27147 5.8483L8.34437 5.85418C9.06521 5.91225 9.77002 5.6203 10.2387 5.06953L10.2861 5.01383Z" stroke="#1A1A1A" stroke-width="2"/>
<path d="M14.25 10.875L10.875 14.25L9.75 13.125" stroke="#1A1A1A" stroke-width="2" stroke-linecap="round" stroke-linejoin="round"/>
</svg>
