<svg width="48" height="48" viewBox="0 0 48 48" fill="none" xmlns="http://www.w3.org/2000/svg">
<path d="M28 23C29.6569 23 31 21.6569 31 20C31 18.3431 29.6569 17 28 17C26.3431 17 25 18.3431 25 20C25 21.6569 26.3431 23 28 23Z" fill="#A8A8A8"/>
<path d="M28 38C29.1046 38 30 37.1046 30 36C30 34.8954 29.1046 34 28 34C26.8954 34 26 34.8954 26 36C26 37.1046 26.8954 38 28 38Z" fill="#A8A8A8"/>
<path d="M28 31C29.6569 31 31 29.6569 31 28C31 26.3431 29.6569 25 28 25C26.3431 25 25 26.3431 25 28C25 29.6569 26.3431 31 28 31Z" fill="#A8A8A8"/>
<path d="M28 14C29.1046 14 30 13.1046 30 12C30 10.8954 29.1046 10 28 10C26.8954 10 26 10.8954 26 12C26 13.1046 26.8954 14 28 14Z" fill="#A8A8A8"/>
<path d="M6 19C5.44 19 5 19.44 5 20C5 20.56 5.44 21 6 21C6.56 21 7 20.56 7 20C7 19.44 6.56 19 6 19ZM29 6C29 5.44 28.56 5 28 5C27.44 5 27 5.44 27 6C27 6.56 27.44 7 28 7C28.56 7 29 6.56 29 6ZM42 29C42.56 29 43 28.56 43 28C43 27.44 42.56 27 42 27C41.44 27 41 27.44 41 28C41 28.56 41.44 29 42 29Z" fill="#A8A8A8"/>
<path d="M36 38C37.1046 38 38 37.1046 38 36C38 34.8954 37.1046 34 36 34C34.8954 34 34 34.8954 34 36C34 37.1046 34.8954 38 36 38Z" fill="#A8A8A8"/>
<path d="M27 42C27 42.56 27.44 43 28 43C28.56 43 29 42.56 29 42C29 41.44 28.56 41 28 41C27.44 41 27 41.44 27 42ZM42 21C42.56 21 43 20.56 43 20C43 19.44 42.56 19 42 19C41.44 19 41 19.44 41 20C41 20.56 41.44 21 42 21Z" fill="#A8A8A8"/>
<path d="M36 30C37.1046 30 38 29.1046 38 28C38 26.8954 37.1046 26 36 26C34.8954 26 34 26.8954 34 28C34 29.1046 34.8954 30 36 30Z" fill="#A8A8A8"/>
<path d="M36 14C37.1046 14 38 13.1046 38 12C38 10.8954 37.1046 10 36 10C34.8954 10 34 10.8954 34 12C34 13.1046 34.8954 14 36 14Z" fill="#A8A8A8"/>
<path d="M12 38C13.1046 38 14 37.1046 14 36C14 34.8954 13.1046 34 12 34C10.8954 34 10 34.8954 10 36C10 37.1046 10.8954 38 12 38Z" fill="#A8A8A8"/>
<path d="M12 30C13.1046 30 14 29.1046 14 28C14 26.8954 13.1046 26 12 26C10.8954 26 10 26.8954 10 28C10 29.1046 10.8954 30 12 30Z" fill="#A8A8A8"/>
<path d="M7 28C7 27.44 6.56 27 6 27C5.44 27 5 27.44 5 28C5 28.56 5.44 29 6 29C6.56 29 7 28.56 7 28Z" fill="#A8A8A8"/>
<path d="M20 14C21.1046 14 22 13.1046 22 12C22 10.8954 21.1046 10 20 10C18.8954 10 18 10.8954 18 12C18 13.1046 18.8954 14 20 14Z" fill="#A8A8A8"/>
<path d="M12 22C13.1046 22 14 21.1046 14 20C14 18.8954 13.1046 18 12 18C10.8954 18 10 18.8954 10 20C10 21.1046 10.8954 22 12 22Z" fill="#A8A8A8"/>
<path d="M12 14C13.1046 14 14 13.1046 14 12C14 10.8954 13.1046 10 12 10C10.8954 10 10 10.8954 10 12C10 13.1046 10.8954 14 12 14Z" fill="#A8A8A8"/>
<path d="M19 42C19 42.56 19.44 43 20 43C20.56 43 21 42.56 21 42C21 41.44 20.56 41 20 41C19.44 41 19 41.44 19 42Z" fill="#A8A8A8"/>
<path d="M20 38C21.1046 38 22 37.1046 22 36C22 34.8954 21.1046 34 20 34C18.8954 34 18 34.8954 18 36C18 37.1046 18.8954 38 20 38Z" fill="#A8A8A8"/>
<path d="M21 6C21 5.44 20.56 5 20 5C19.44 5 19 5.44 19 6C19 6.56 19.44 7 20 7C20.56 7 21 6.56 21 6Z" fill="#A8A8A8"/>
<path d="M20 31C21.6569 31 23 29.6569 23 28C23 26.3431 21.6569 25 20 25C18.3431 25 17 26.3431 17 28C17 29.6569 18.3431 31 20 31Z" fill="#A8A8A8"/>
<path d="M20 23C21.6569 23 23 21.6569 23 20C23 18.3431 21.6569 17 20 17C18.3431 17 17 18.3431 17 20C17 21.6569 18.3431 23 20 23Z" fill="#A8A8A8"/>
<path d="M36 22C37.1046 22 38 21.1046 38 20C38 18.8954 37.1046 18 36 18C34.8954 18 34 18.8954 34 20C34 21.1046 34.8954 22 36 22Z" fill="#A8A8A8"/>
</svg>
