<svg width="28" height="28" viewBox="0 0 32 32" fill="none" xmlns="http://www.w3.org/2000/svg">
<path fill-rule="evenodd" clip-rule="evenodd" d="M5.99984 6.66634C5.99984 5.92996 6.59679 5.33301 7.33317 5.33301H22.6665C23.4029 5.33301 23.9998 5.92996 23.9998 6.66634V22.6663C23.9998 23.4027 23.4029 23.9997 22.6665 23.9997C21.9301 23.9997 21.3332 23.4027 21.3332 22.6663V7.99967H7.33317C6.59679 7.99967 5.99984 7.40272 5.99984 6.66634ZM3.99984 7.99967C4.73622 7.99967 5.33317 8.59663 5.33317 9.33301V22.6663C5.33317 23.4027 5.93012 23.9997 6.6665 23.9997H19.9998C20.7362 23.9997 21.3332 24.5966 21.3332 25.333C21.3332 26.0694 20.7362 26.6663 19.9998 26.6663H6.6665C4.45737 26.6663 2.6665 24.8755 2.6665 22.6663V9.33301C2.6665 8.59663 3.26346 7.99967 3.99984 7.99967Z" fill="currentColor"/>
<path fill-rule="evenodd" clip-rule="evenodd" d="M26.0201 9.78699C27.7031 9.36622 29.3335 10.6392 29.3335 12.374V19.6253C29.3335 21.3602 27.7031 22.6331 26.0201 22.2123L22.3434 21.2932C21.7499 21.1448 21.3335 20.6115 21.3335 19.9997V11.9997C21.3335 11.3878 21.7499 10.8545 22.3434 10.7061L26.0201 9.78699ZM24.0002 13.0407V18.9586L26.6668 19.6253L26.6668 12.374L24.0002 13.0407Z" fill="currentColor"/>
<path fill-rule="evenodd" clip-rule="evenodd" d="M3.05703 3.05752C3.57773 2.53682 4.42195 2.53682 4.94265 3.05752L27.6093 25.7242C28.13 26.2449 28.13 27.0891 27.6093 27.6098C27.0886 28.1305 26.2444 28.1305 25.7237 27.6098L3.05703 4.94313C2.53633 4.42244 2.53633 3.57822 3.05703 3.05752Z" fill="currentColor"/>
</svg>
