<svg width="32" height="32" viewBox="0 0 32 32" fill="none" xmlns="http://www.w3.org/2000/svg">
<path d="M28 16C28 22.6274 22.6274 28 16 28C9.37258 28 4 22.6274 4 16C4 9.37258 9.37258 4 16 4C22.6274 4 28 9.37258 28 16Z" fill="#FFCC00"/>
<path fill-rule="evenodd" clip-rule="evenodd" d="M16 5.33268C10.109 5.33268 5.33335 10.1083 5.33335 15.9993C5.33335 21.8904 10.109 26.666 16 26.666C21.8911 26.666 26.6667 21.8904 26.6667 15.9993C26.6667 10.1083 21.8911 5.33268 16 5.33268ZM2.66669 15.9993C2.66669 8.63555 8.63622 2.66602 16 2.66602C23.3638 2.66602 29.3334 8.63555 29.3334 15.9993C29.3334 23.3631 23.3638 29.3327 16 29.3327C8.63622 29.3327 2.66669 23.3631 2.66669 15.9993Z" fill="black"/>
<path fill-rule="evenodd" clip-rule="evenodd" d="M20.9428 12.3905C21.4635 12.9112 21.4635 13.7554 20.9428 14.2761L15.6095 19.6095C15.0888 20.1302 14.2446 20.1302 13.7239 19.6095L11.0572 16.9428C10.5365 16.4221 10.5365 15.5779 11.0572 15.0572C11.5779 14.5365 12.4221 14.5365 12.9428 15.0572L14.6667 16.781L19.0572 12.3905C19.5779 11.8698 20.4221 11.8698 20.9428 12.3905Z" fill="black"/>
</svg>
