<svg width="24" height="24" viewBox="0 0 24 24" fill="none" xmlns="http://www.w3.org/2000/svg">
<path fill-rule="evenodd" clip-rule="evenodd" d="M8 6C8 3.79086 9.79086 2 12 2C14.2091 2 16 3.79086 16 6V11C16 13.2091 14.2091 15 12 15C9.79086 15 8 13.2091 8 11V6ZM12 13C13.1046 13 14 12.1046 14 11V6C14 4.89543 13.1046 4 12 4C10.8954 4 10 4.89543 10 6V11C10 12.1046 10.8954 13 12 13Z" fill="#A8A8A8"/>
<path fill-rule="evenodd" clip-rule="evenodd" d="M5 10C5.55228 10 6 10.4477 6 11C6 14.3137 8.68629 17 12 17C15.3137 17 18 14.3137 18 11C18 10.4477 18.4477 10 19 10C19.5523 10 20 10.4477 20 11C20 15.4183 16.4183 19 12 19C7.58172 19 4 15.4183 4 11C4 10.4477 4.44772 10 5 10Z" fill="#A8A8A8"/>
<path fill-rule="evenodd" clip-rule="evenodd" d="M12 17C12.5523 17 13 17.4477 13 18V21C13 21.5523 12.5523 22 12 22C11.4477 22 11 21.5523 11 21V18C11 17.4477 11.4477 17 12 17Z" fill="#A8A8A8"/>
</svg>
